<svg width="177" height="133" viewBox="0 0 177 133" fill="none" xmlns="http://www.w3.org/2000/svg">
<path d="M175.977 33.672L175.757 32.195L175.529 32.2478C173.966 24.9422 170.368 18.2283 165.149 12.8828C159.93 7.53736 153.304 3.77883 146.038 2.04212C138.772 0.305408 131.163 0.661501 124.09 3.0692C117.018 5.4769 110.772 9.83779 106.076 15.6473C101.379 21.4568 98.4226 28.4775 97.5494 35.897C96.6763 43.3165 97.9218 50.8316 101.142 57.5728C104.362 64.314 109.425 70.0056 115.745 73.9893C122.065 77.973 129.383 80.0858 136.854 80.0832C138.815 80.0832 140.696 79.7843 142.569 79.5118C141.962 81.5515 141.338 83.6263 140.336 85.4901C139.333 88.198 137.768 90.5453 136.212 92.9103C134.911 95.4687 132.617 97.2006 130.929 99.3897C129.161 101.517 126.752 102.933 124.845 104.7C122.972 106.546 120.519 107.469 118.567 108.77C116.528 109.94 114.752 111.232 112.853 111.848L108.114 113.799L103.947 115.531L108.202 132.578L113.451 131.312C115.13 130.89 117.178 130.398 119.508 129.809C121.891 129.369 124.431 128.165 127.262 127.066C130.049 125.809 133.293 124.974 136.3 122.96C139.325 121.044 142.815 119.444 145.892 116.876C148.872 114.23 152.468 111.935 155.123 108.577C158.024 105.43 160.891 102.124 163.115 98.3611C165.691 94.7741 167.44 90.8354 169.287 86.9407C170.957 83.046 172.302 79.0634 173.401 75.1951C175.485 67.4408 176.417 60.0734 176.777 53.7698C177.076 47.4574 176.9 42.2088 176.531 38.4108C176.407 36.8246 176.223 35.2439 175.977 33.672ZM79.2687 33.672L79.0489 32.195L78.8203 32.2478C77.2581 24.9422 73.6593 18.2283 68.4404 12.8828C63.2214 7.53736 56.5956 3.77883 49.3295 2.04212C42.0635 0.305408 34.4542 0.661501 27.3821 3.0692C20.31 5.4769 14.0641 9.83779 9.36719 15.6473C4.67025 21.4568 1.71421 28.4775 0.841091 35.897C-0.0320263 43.3165 1.21347 50.8316 4.43346 57.5728C7.65346 64.314 12.7163 70.0056 19.0363 73.9893C25.3563 77.973 32.6751 80.0858 40.1458 80.0832C42.1063 80.0832 43.9877 79.7843 45.8604 79.5118C45.2537 81.5515 44.6295 83.6263 43.6273 85.4901C42.625 88.198 41.0601 90.5453 39.504 92.9103C38.2028 95.4687 35.9082 97.2006 34.2202 99.3897C32.4531 101.517 30.0441 102.933 28.1364 104.7C26.2637 106.546 23.8109 107.469 21.8591 108.77C19.8194 109.94 18.0435 111.232 16.1445 111.848L11.4058 113.799C8.75953 114.881 7.24736 115.514 7.24736 115.514L11.5025 132.561L16.7512 131.295C18.4304 130.873 20.4788 130.38 22.8086 129.791C25.1912 129.352 27.7319 128.147 30.5629 127.048C33.3498 125.791 36.5939 124.956 39.6007 122.943C42.625 121.026 46.1153 119.426 49.1924 116.859C52.1728 114.213 55.7686 111.918 58.4237 108.559C61.3249 105.412 64.191 102.106 66.4153 98.3435C68.9912 94.7565 70.7408 90.8179 72.587 86.9232C74.2574 83.0285 75.6026 79.0458 76.7015 75.1775C78.7852 67.4232 79.7171 60.0558 80.0775 53.7522C80.3764 47.4398 80.2006 42.1912 79.8314 38.3932C79.7001 36.8133 79.5124 35.2385 79.2687 33.672Z" fill="#F29799"/>
</svg>
