<svg width="387" height="847" viewBox="0 0 387 847" fill="none" xmlns="http://www.w3.org/2000/svg">
<path d="M374.875 279.081C372.369 275.676 368.646 274.304 364.994 274.083C360.232 273.774 355.399 274.835 350.817 276.251C345.733 277.843 340.829 280.055 336.103 282.753C326.043 288.503 316.341 295.492 307.283 303.409C298.512 311.061 290.672 320.218 283.297 329.816C279.681 334.505 276.173 339.238 272.987 344.413C271.734 346.448 270.516 348.526 269.371 350.65C275.206 328.356 279.431 305.444 284.443 282.841C287.128 270.677 289.992 258.646 292.677 246.526C292.748 246.438 292.784 246.349 292.82 246.261C293.5 244.978 294.001 243.607 294.503 242.192C294.968 240.953 295.613 239.847 296.293 238.741C297.832 236.264 299.479 233.876 301.233 231.576C304.276 227.595 307.999 224.454 311.58 221.314C315.124 218.218 318.453 214.812 321.89 211.583C325.184 208.486 328.621 205.656 332.129 202.913C346.091 192.076 361.306 183.318 373.622 169.518C378.777 163.767 384.505 156.779 386.51 148.286C387.656 143.42 386.94 138.245 382.787 136.078C381.068 135.149 379.135 134.972 377.273 134.928C375.054 134.928 372.87 135.016 370.65 135.459C361.271 137.272 352.535 142.668 344.444 148.64C336.532 154.479 329.408 161.467 322.964 169.606C316.52 177.745 310.971 186.812 305.995 196.411C303.847 200.569 301.699 204.771 299.694 209.061C300.732 202.117 301.555 195.084 302.092 188.007C302.486 183.008 302.594 178.054 302.558 173.145C302.737 172.879 302.88 172.57 302.952 172.216C303.059 171.641 303.166 171.021 303.274 170.446L303.345 170.048V169.916V169.739H303.381L303.453 169.429C303.453 169.429 303.524 169.164 303.56 169.031C303.847 167.881 304.169 166.731 304.527 165.625C304.598 165.448 304.598 165.271 304.634 165.094V164.962C304.849 164.608 305.028 164.254 305.171 163.9C305.171 163.9 305.35 163.546 305.314 163.635C305.386 163.458 305.458 163.325 305.565 163.148C305.816 162.662 305.923 162.219 305.887 161.644C305.887 161.202 305.672 160.804 305.422 160.494C308.035 155.363 309.539 149.038 310.685 143.376C311.651 138.599 312.331 133.999 313.799 129.399C315.374 124.577 317.021 119.756 318.74 115.023C325.613 96.1359 329.229 75.9659 335.458 56.8132C338.537 47.3917 341.688 38.0587 343.693 28.1948C345.339 20.1003 347.523 6.96324 340.829 1.34572C338.466 -0.644745 336.747 0.770695 334.528 2.36306C331.485 4.53046 328.585 7.05171 325.9 9.83835C320.888 15.0578 316.448 21.1619 312.51 27.6198C304.276 41.1992 296.937 56.7248 293.93 73.4004C290.493 92.4646 292.032 112.458 294.001 131.655C295.04 141.607 296.257 151.559 296.866 161.6C297.474 171.906 297.08 182.124 296.114 192.342C295.398 199.95 294.395 207.469 293.214 214.989C292.39 208.575 290.958 202.25 289.204 196.19C285.195 182.124 278.715 168.456 268.977 159.344C264.001 154.655 258.237 151.78 251.9 152.223C246.96 152.577 240.516 154.832 239.477 161.777C238.904 165.492 240.372 169.031 241.769 172.172C243.415 175.799 245.062 179.381 246.924 182.832C250.611 189.732 254.872 196.146 259.382 202.25C264.43 209.106 269.979 215.298 275.457 221.579C277.999 224.499 280.54 227.595 282.545 231.089C284.228 234.009 285.66 237.459 285.266 241.13C285.195 241.838 285.266 242.413 285.445 242.943C285.445 246.172 285.338 249.446 285.123 252.675C285.016 253.913 284.872 255.196 284.765 256.434C280.361 275.366 276.137 294.297 272.127 313.406C267.975 333.089 263.464 352.773 257.163 371.616C257.485 367.193 257.7 362.769 257.736 358.346C257.807 346.978 256.626 336.009 253.905 325.172C251.399 315.131 247.747 305.577 243.738 296.332C240.086 287.884 236.076 279.568 230.491 272.889C225.551 266.962 218.319 262.008 211.195 263.335C207.4 264.042 204.106 267.094 202.889 271.695C201.636 276.339 202.424 281.249 203.748 285.761C205.037 290.14 206.827 294.297 208.546 298.411C210.73 303.63 212.985 308.806 215.24 313.981C219.787 324.287 224.441 334.593 228.701 345.121C230.778 350.296 232.783 355.559 234.608 360.911C235.539 363.61 236.47 366.308 237.15 369.139C237.759 371.704 238.117 374.402 238.475 377.012C239.227 382.63 240.551 388.159 241.196 393.82C241.84 399.526 241.446 405.409 240.909 411.071C240.802 412.31 240.766 413.725 240.587 415.052C239.119 418.502 237.616 421.952 236.076 425.402C220.396 460.479 201.672 493.034 181.087 523.908C180.192 525.235 179.297 526.562 178.437 527.889C182.161 517.76 184.738 506.967 186.278 496.042C187.996 483.789 188.462 471.227 187.602 458.842C187.173 452.605 186.421 446.369 185.383 440.22C184.452 434.824 183.808 429.605 181.337 424.872C180.227 422.793 178.76 421.023 177.507 419.121C176.182 417.087 174.535 415.45 172.674 414.3C168.771 411.912 163.831 411.779 159.642 413.062C157.387 413.769 155.31 414.742 153.556 416.689C152.052 418.281 150.835 420.271 150.048 422.483C149.153 424.96 149.045 427.526 148.687 430.18C148.258 433.453 147.971 436.726 147.792 440.043C147.47 446.413 147.542 452.871 148.365 459.196C149.153 465.3 150.477 471.227 151.838 477.154C153.162 482.905 154.63 488.611 155.561 494.494C156.492 500.553 156.886 506.746 156.635 512.894C156.349 519.308 155.525 525.677 154.738 532.047C153.986 538.018 152.446 543.769 150.549 549.342C148.544 555.136 146.181 560.71 143.747 566.239C142.53 568.981 141.312 571.679 140.095 574.422C139.021 576.854 138.09 579.508 136.766 581.764C136.193 582.737 135.513 583.135 134.761 583.843C134.367 584.241 134.045 584.639 133.794 585.17C133.687 585.347 133.544 585.568 133.436 585.789C133.579 585.701 133.83 585.657 134.26 585.701C133.937 585.701 133.687 585.701 133.4 585.834C133.4 585.922 133.329 586.011 133.329 586.099C133.329 586.364 133.042 586.055 133.329 585.834C132.147 586.32 131.646 587.868 131.968 589.151C131.252 589.991 130.501 590.832 129.785 591.628C123.877 598.219 118.543 605.827 113.281 613.169C102.719 627.854 92.7669 643.247 82.9217 658.685C73.005 674.21 63.482 690.134 54.8541 706.809C51.2383 713.798 47.7656 720.875 44.4004 728.041C46.1904 721.45 47.9088 714.815 49.4482 708.136C53.3505 691.107 55.5701 673.635 56.4293 656.031C57.2886 638.514 57.1095 620.866 56.2145 603.35C55.7849 595.034 55.1047 586.807 53.8517 578.624C52.7419 571.325 51.4173 563.894 48.768 557.171C46.441 551.332 43.04 546.467 38.3501 543.415C33.3022 540.141 27.3951 539.965 22.2041 542.928C17.2636 545.759 12.9317 551.023 10.8911 557.304C9.63808 561.196 8.67146 565.266 8.02705 569.423C7.38265 573.625 7.16784 577.916 6.91724 582.207C5.91482 599.59 6.38023 616.885 8.20606 634.135C9.10107 642.717 10.2825 651.298 11.3923 659.835C12.5021 668.371 13.5045 676.908 14.5785 685.401C16.7266 702.519 19.519 719.46 22.7411 736.312C23.4571 740.161 24.1373 744.097 24.0657 748.078C23.9583 752.413 23.4929 756.704 22.8485 760.95C22.2041 765.108 21.3806 769.221 20.4856 773.291C19.5548 777.449 18.5166 781.695 18.3018 785.986C18.1944 787.711 18.1586 789.303 17.6216 790.94C17.013 792.842 16.3328 794.611 16.0106 796.646C15.9748 796.955 15.9748 797.265 16.0106 797.574C14.1131 802.838 12.2515 808.102 10.4257 813.365C7.23944 822.61 4.3754 834.11 0.473148 842.736C-1.67488 847.469 4.089 848.221 5.80742 844.151C21.9177 805.713 33.5886 764.09 51.4173 726.935C53.8875 724.901 56.5725 723.352 59.007 721.362C61.6562 719.195 64.2338 716.894 66.9547 714.904C72.3606 710.967 78.554 708.534 84.4611 706.057C87.3968 704.819 90.3324 703.713 93.3755 702.917C96.5617 702.077 99.7837 701.457 103.006 700.75C109.665 699.246 116.216 697.122 122.803 695.397C136.121 691.903 149.69 689.426 163.151 686.772C174.535 684.516 185.956 682.26 196.982 677.926C202.424 675.802 207.722 673.104 212.734 669.654C217.281 666.514 222.007 662.842 225.121 657.579C226.732 654.88 227.842 651.74 227.699 648.378C227.556 644.751 225.837 641.832 223.725 639.488C219.715 635.064 214.31 633.03 209.118 631.835C196.839 628.96 184.201 630.42 171.922 632.72C158.855 635.197 146.145 639.266 133.651 644.619C121.515 649.838 109.951 656.429 98.7813 664.214C90.3682 670.096 82.0625 676.201 74.5086 683.499C76.048 680.889 77.5874 678.279 79.1627 675.714C94.3421 650.988 110.237 626.616 127.493 604.057C136.479 592.336 146.503 581.853 155.633 570.22C164.189 559.294 172.208 547.661 180.12 536.028C180.943 535.851 181.695 535.143 181.874 533.816C181.803 534.347 182.232 532.976 182.018 533.418C182.268 532.932 182.376 532.799 182.519 532.666C183.163 531.914 183.736 531.516 184.416 531.118C184.738 530.941 185.061 530.764 185.383 530.587C185.812 530.941 186.349 530.941 186.815 530.366C187.03 530.101 187.28 529.88 187.495 529.614C188.283 529.305 189.106 528.995 189.894 528.685C194.333 527.093 198.593 525.014 203.068 523.466C215.24 519.308 227.95 518.468 240.444 517.008C265.504 514.133 290.565 509.798 314.873 501.527C319.814 499.846 324.754 497.988 329.301 495.024C331.592 493.565 333.847 491.84 335.781 489.761C336.926 488.566 337.929 487.151 338.967 485.824C340.113 484.364 341.401 482.949 342.368 481.312C343.263 479.808 343.907 478.128 344.194 476.314C344.48 474.412 344.086 472.687 343.872 470.873C343.514 467.91 342.654 465.389 340.721 463.531C339.826 462.646 338.824 462.16 337.821 461.54C336.318 460.656 334.921 459.638 333.346 458.931C330.518 457.559 327.582 456.763 324.611 456.011C318.453 454.419 312.081 454.242 305.816 454.729C299.515 455.215 293.25 456.232 287.056 457.736C274.812 460.744 262.748 465.212 250.969 470.254C239.513 475.12 228.308 481.047 217.818 488.522C212.52 492.282 207.507 496.528 202.674 501.084C223.618 466.539 242.019 429.826 256.626 390.547C257.521 388.601 258.344 386.566 259.239 384.576C260.385 381.966 261.566 379.445 263.034 377.101C264.609 374.579 266.542 372.677 268.619 370.82C273.022 366.971 277.283 362.814 281.829 359.186C286.269 355.648 291.245 353.171 296.078 350.561C306.424 344.899 316.878 339.459 326.938 333.089C331.95 329.905 337.069 327.074 342.332 324.552C347.094 322.297 351.891 320.218 356.545 317.652C365.459 312.787 374.159 306.019 376.665 293.634C377.631 288.857 377.631 283.151 374.803 279.258L374.875 279.081ZM305.887 208.531C310.685 198.932 315.732 189.555 321.711 181.018C327.403 172.879 333.847 165.448 341.008 159.3C348.132 153.152 356.008 147.755 364.314 144.349C368.144 142.757 372.44 141.695 376.307 141.695C377.846 141.695 379.6 141.695 380.818 142.447C380.925 142.536 381.104 142.624 381.319 142.89L381.426 143.067L381.498 143.243C381.498 143.243 381.534 143.376 381.57 143.42C381.57 143.465 381.57 143.553 381.57 143.73V144.04C381.57 144.04 381.57 144.615 381.57 144.57C381.462 145.721 381.426 145.765 381.176 146.649C380.889 147.622 380.567 148.551 380.173 149.48C379.565 150.984 378.992 152.134 378.097 153.682C376.092 157.132 373.622 160.229 371.116 163.104C359.481 176.506 345.053 185.22 331.556 195.349C328.119 197.915 324.718 200.613 321.46 203.488C318.131 206.407 315.052 209.681 311.794 212.688C310.148 214.237 308.429 215.696 306.746 217.156C309.467 213.352 312.224 209.592 315.124 206.009C321.46 198.136 328.477 191.457 336.103 185.618C340.363 182.345 344.695 179.249 348.955 176.02C350.065 175.179 348.955 172.791 347.81 173.587C340.005 179.028 332.022 184.291 324.826 190.926C317.594 197.605 311.257 205.656 305.279 213.971C303.381 216.625 301.52 219.323 299.658 222.022C301.591 217.421 303.703 212.91 305.923 208.486L305.887 208.531ZM297.617 94.1012C298.011 78.5314 301.054 64.2885 307.176 50.6207C312.475 38.7664 318.811 27.1775 326.866 17.9329C330.375 13.9077 334.17 10.4134 338.358 7.5825C341.33 11.1653 339.468 20.4984 338.788 24.3908C337.427 32.1757 335.136 39.7395 332.738 47.0821C329.408 57.2998 326.401 67.5617 323.752 78.0891C320.136 92.4204 315.768 106 311.007 119.8C309.79 123.339 308.536 126.877 307.534 130.505C306.532 134.132 306.138 137.936 305.35 141.651C304.742 144.659 303.99 147.976 302.987 151.117C303.31 141.032 303.668 130.991 304.742 120.995C306.03 108.963 308.286 97.0206 310.792 85.2989C312.224 78.5756 313.871 71.9408 315.732 65.3501C316.198 63.6693 314.229 62.6077 313.656 64.2885C309.933 75.6563 307.319 87.4663 305.171 99.4091C302.987 111.617 301.412 123.825 300.804 136.343C300.732 138.068 300.625 139.749 300.553 141.474C299.014 125.727 297.224 110.025 297.617 94.057V94.1012ZM284.264 222.552C279.932 216.669 274.92 211.671 270.302 206.142C261.387 195.438 253.225 183.407 247.174 169.96C246.244 167.925 244.31 164.608 245.062 162.308C245.599 160.715 247.676 159.831 249.251 159.388C250.289 159.123 251.327 158.946 252.401 158.858C252.544 158.858 253.439 158.858 253.439 158.813C254.156 158.813 254.836 158.902 255.552 158.99C258.237 159.433 260.85 160.715 263.141 162.529C272.629 169.871 278.929 182.301 282.975 194.907C285.338 202.25 287.164 209.99 287.987 217.819C287.987 217.952 287.987 218.129 288.023 218.262C285.982 213.131 283.655 208.177 280.827 203.665C275.958 195.836 270.087 189.113 264.215 182.478C262.891 180.974 261.172 183.716 262.497 185.22C268.261 191.722 273.989 198.313 278.715 205.965C282.796 212.6 285.445 220.12 288.488 227.418C288.488 228.126 288.488 228.833 288.488 229.541C287.271 226.976 285.767 224.587 284.192 222.464L284.264 222.552ZM27.8605 764.71C27.8605 764.71 28.2185 764.975 28.4691 764.975C28.0395 766.081 27.5741 767.143 27.1445 768.248C27.3951 767.054 27.6457 765.904 27.8605 764.71ZM46.8348 695.397C45.0448 705.394 42.6819 715.258 40.0685 724.989C40.4265 721.229 40.7487 717.514 40.9277 713.71C41.9301 693.23 40.2475 672.706 37.8131 652.448C36.4169 640.947 34.8058 629.491 33.3022 618.035C33.0158 615.867 30.2592 616.31 30.5456 618.521C33.1232 638.205 36.0588 657.888 37.5267 677.749C38.2427 687.701 38.6365 697.698 38.3501 707.738C38.0995 717.646 37.1687 727.554 35.8798 737.286C35.5934 739.453 35.1996 741.488 34.7342 743.522V743.611C33.517 747.592 32.2998 751.528 31.011 755.465C30.9036 755.863 30.832 756.217 30.832 756.571C30.1876 758.473 29.4 760.286 28.3259 761.746C28.9704 757.854 29.4358 753.917 29.579 749.936C29.9012 741.665 27.9321 734.012 26.4643 726.006C24.9249 717.779 23.6003 709.463 22.3473 701.148C19.877 684.516 18.0154 667.752 15.76 651.077C13.5403 634.534 11.6429 617.902 11.5713 601.094C11.5713 592.822 11.8577 584.507 12.3947 576.279C12.6453 572.343 13.1823 568.45 14.0773 564.646C14.9008 561.24 15.7958 557.967 17.55 555.136C20.414 550.536 24.7101 547.13 29.4716 546.909C34.0182 546.688 38.4575 550.05 41.2141 554.296C44.114 558.808 45.8324 564.69 46.9422 570.308C48.5174 578.226 49.6272 586.276 50.2717 594.415C51.5963 611.046 51.9185 627.943 51.5247 644.663C51.1309 661.692 49.7346 678.722 46.7632 695.397H46.8348ZM61.692 706.5C62.0142 705.881 62.3364 705.261 62.6586 704.642C62.9092 704.554 63.1598 704.421 63.4104 704.244C62.8376 704.996 62.2648 705.748 61.692 706.5ZM77.4084 687.966C82.4205 683.101 87.8264 678.987 93.2681 674.918C103.937 667 115.035 659.835 126.634 654.217C138.377 648.555 150.549 643.911 162.9 640.947C175.036 638.028 187.71 635.684 200.097 636.701C205.073 637.099 210.228 637.851 214.918 640.063C217.102 641.08 219.286 642.451 220.968 644.53C221.684 645.415 222.329 646.432 222.579 647.671C222.758 648.511 222.615 649.573 222.436 650.325C221.004 655.588 216.279 659.171 212.627 661.958C208.009 665.452 202.997 668.15 197.913 670.362C187.495 674.829 176.576 677.041 165.692 679.164C152.912 681.685 140.095 684.118 127.386 687.082C120.906 688.586 114.462 690.488 108.018 692.301C101.86 693.982 95.5593 694.911 89.4374 696.857C83.2439 698.803 77.0862 701.59 71.1791 704.642C68.3151 706.102 65.6301 707.915 63.0524 709.906C65.2005 706.898 67.4201 704.023 69.8903 701.457C74.2938 696.813 79.3417 693.54 84.6043 690.62C90.1534 687.524 95.8099 684.782 101.323 681.641C106.478 678.678 111.777 676.156 117.398 674.785C124.45 673.06 131.682 673.325 138.699 671.468C140.203 671.07 139.916 668.239 138.377 668.548C131.861 669.743 125.202 669.654 118.686 671.025C112.994 672.175 107.517 674.475 102.218 677.395C96.4185 680.58 90.5472 683.632 84.7475 686.816C79.4133 689.736 74.1506 692.92 69.5323 697.432C67.9929 698.936 66.5251 700.573 65.1289 702.253C68.9237 697.167 73.005 692.434 77.4084 688.143V687.966ZM161.611 551.73C161.146 552.527 160.645 553.367 160.143 554.163L159.964 554.384C163.401 544.432 166.766 534.435 169.237 524.041C172.28 511.346 173.783 498.342 173.139 485.116C172.96 481.533 172.638 477.995 172.065 474.5C171.492 471.006 170.812 467.423 171.313 463.84C171.528 462.248 169.452 461.452 169.022 463.089C167.518 468.971 169.523 475.076 170.06 481.003C170.669 487.549 170.669 494.228 170.168 500.819C169.165 514.221 165.836 527.137 161.862 539.611C159.642 546.599 157.172 553.544 154.773 560.444C154.666 560.798 154.63 561.152 154.666 561.462C152.625 564.16 150.549 566.814 148.472 569.468C148.329 569.644 148.186 569.821 148.007 569.998C148.616 568.716 149.188 567.433 149.797 566.15C154.702 555.446 158.819 544.167 160.215 531.914C160.931 525.633 161.719 519.352 161.933 513.027C162.148 506.834 161.79 500.642 160.859 494.582C159.069 482.905 155.239 471.847 153.341 460.169C152.375 454.109 152.052 448.005 152.231 441.813C152.339 438.716 152.518 435.62 152.84 432.524C153.091 430.047 153.091 427.349 153.807 424.96C154.415 422.925 155.454 421.289 156.85 419.962C158.461 418.414 160.68 417.75 162.649 417.441C166.408 416.821 170.776 417.662 173.497 421.2C174.141 422.041 174.607 423.102 175.287 423.943C175.967 424.783 176.647 425.668 177.22 426.641C178.33 428.499 179.153 430.578 179.726 432.789C180.371 435.266 180.621 437.964 181.051 440.53C181.552 443.538 181.982 446.59 182.34 449.686C183.772 461.717 183.951 473.837 182.841 485.957C181.767 497.811 179.547 509.488 176.039 520.591C172.459 531.914 167.268 541.999 161.468 551.775L161.611 551.73ZM212.484 498.784C222.221 490.69 232.926 484.409 243.845 479.145C254.979 473.793 266.507 469.37 278.106 465.787C289.884 462.16 302.236 459.417 314.408 460.125C320.279 460.479 326.473 461.629 331.95 464.415C333.275 465.079 334.492 465.964 335.781 466.76C336.604 467.246 337.535 467.733 338.072 468.441C338.609 469.104 338.824 469.768 338.931 470.697C339.074 472.068 339.54 473.616 339.289 474.987C339.039 476.491 338.143 477.597 337.284 478.658C336.174 480.074 335.065 481.489 333.955 482.905C332.308 484.984 330.411 486.709 328.37 488.08C323.966 491.088 319.133 492.99 314.336 494.671C290.851 502.853 266.471 506.923 242.234 509.754C229.847 511.213 217.317 511.965 205.18 515.637C203.569 516.123 201.994 516.654 200.419 517.229C214.775 506.392 231.709 500.686 247.962 496.174C254.084 494.494 260.242 492.901 266.328 491.088C267.76 490.645 267.545 487.859 266.005 488.168C254.728 490.645 243.487 493.609 232.46 497.413C221.434 501.173 210.515 505.994 200.598 513.115C197.054 515.637 193.688 518.468 190.502 521.608C190.144 521.741 189.75 521.918 189.392 522.05C196.696 513.69 204.25 505.596 212.52 498.74L212.484 498.784ZM250.396 383.912C249.895 386.655 249.394 389.397 249.108 392.184C249.036 392.759 249.108 393.29 249.251 393.776C248.499 395.722 247.747 397.713 246.96 399.659C246.96 396.74 246.888 393.776 246.53 390.901C246.924 381.214 246.315 371.439 245.42 361.796C244.776 354.852 244.131 347.907 242.843 341.095C241.554 334.461 239.692 328.003 237.508 321.722C235.038 314.6 232.246 307.744 229.489 300.8C228.737 298.942 226.303 300.18 227.055 302.082C231.852 314.158 236.935 326.277 239.728 339.326C241.124 345.917 241.84 352.684 242.485 359.408C242.878 363.654 243.272 367.856 243.559 372.102C242.699 366.662 241.088 361.575 239.298 356.444C232.031 335.611 222.365 316.237 213.952 296.155C212.233 292.042 210.407 287.928 209.083 283.593C208.009 280.143 207.114 275.985 208.474 272.8C209.799 269.66 212.555 269.439 215.097 269.881C217.854 270.368 220.646 271.783 223.116 273.906C228.952 278.86 233.105 286.38 236.577 293.855C240.516 302.303 244.096 311.062 246.888 320.173C249.895 329.949 251.9 340.078 252.365 350.561C252.616 356.134 252.509 361.752 252.186 367.325C251.864 372.899 251.435 378.428 250.396 383.912ZM356.438 310.088C347.129 315.441 337.105 318.669 327.976 324.508C318.382 330.656 308.501 336.009 298.62 341.405C293.858 344.015 289.025 346.448 284.371 349.323C280.576 351.711 277.032 354.586 273.595 357.638C276.638 353.923 279.896 350.428 283.261 347.199C290.851 339.857 299.014 333.399 307.248 327.162C311.938 323.624 316.663 320.085 321.317 316.502C322.427 315.662 321.317 313.229 320.172 314.025C311.401 320.085 302.773 326.366 294.395 333.222C287.235 339.105 280.218 345.342 273.917 352.596C276.28 348.438 278.786 344.457 281.543 340.653C288.309 331.32 295.577 322.385 303.453 314.512C311.508 306.461 320.422 299.605 329.587 293.634C338.466 287.839 347.774 282.708 357.798 280.983C358.979 280.762 360.161 280.63 361.306 280.497C362.166 280.408 363.132 280.364 363.669 280.408C364.457 280.408 365.244 280.497 366.032 280.674C366.426 280.762 366.784 280.851 367.178 280.939C367.178 280.939 367.393 281.028 367.536 281.028C367.643 281.072 367.93 281.16 368.001 281.205C368.395 281.382 368.753 281.558 369.111 281.78C369.505 282.001 369.684 282.133 369.648 282.133C369.934 282.355 370.185 282.62 370.471 282.885C370.471 282.885 370.615 283.018 370.686 283.107C370.758 283.239 370.937 283.46 370.973 283.505C371.402 284.168 371.545 284.566 371.724 285.274C371.868 285.849 371.975 287.132 371.975 287.839C371.724 299.075 363.92 305.798 356.473 310.088H356.438Z" fill="#F9C6C8"/>
</svg>
