<svg width="387" height="847" viewBox="0 0 387 847" fill="none" xmlns="http://www.w3.org/2000/svg">
<path opacity="0.2" d="M374.875 278.712C372.369 275.307 368.646 273.935 364.994 273.714C360.232 273.405 355.399 274.466 350.817 275.882C345.733 277.474 340.829 279.686 336.103 282.384C326.043 288.134 316.341 295.123 307.283 303.04C298.512 310.693 290.672 319.849 283.297 329.447C279.681 334.136 276.173 338.869 272.987 344.044C271.734 346.079 270.516 348.157 269.371 350.281C275.206 327.987 279.431 305.075 284.443 282.472C287.128 270.308 289.992 258.277 292.677 246.157C292.748 246.069 292.784 245.98 292.82 245.892C293.5 244.609 294.001 243.238 294.503 241.823C294.968 240.584 295.613 239.478 296.293 238.372C297.832 235.895 299.479 233.507 301.233 231.207C304.276 227.226 307.999 224.085 311.58 220.945C315.124 217.849 318.453 214.443 321.89 211.214C325.184 208.117 328.621 205.287 332.129 202.544C346.091 191.707 361.306 182.949 373.622 169.149C378.777 163.398 384.505 156.41 386.51 147.917C387.656 143.051 386.94 137.876 382.787 135.709C381.068 134.78 379.135 134.603 377.273 134.559C375.054 134.559 372.87 134.647 370.65 135.09C361.271 136.903 352.535 142.3 344.444 148.271C336.532 154.11 329.408 161.098 322.964 169.237C316.52 177.376 310.971 186.444 305.995 196.042C303.847 200.2 301.699 204.402 299.694 208.692C300.732 201.748 301.555 194.715 302.092 187.638C302.486 182.64 302.594 177.685 302.558 172.776C302.737 172.51 302.88 172.201 302.952 171.847C303.059 171.272 303.166 170.653 303.274 170.078L303.345 169.679V169.547V169.37H303.381L303.453 169.06C303.453 169.06 303.524 168.795 303.56 168.662C303.847 167.512 304.169 166.362 304.527 165.256C304.598 165.079 304.598 164.902 304.634 164.725V164.593C304.849 164.239 305.028 163.885 305.171 163.531C305.171 163.531 305.35 163.177 305.314 163.266C305.386 163.089 305.458 162.956 305.565 162.779C305.816 162.293 305.923 161.85 305.887 161.275C305.887 160.833 305.672 160.435 305.422 160.125C308.035 154.994 309.539 148.669 310.685 143.007C311.651 138.23 312.331 133.63 313.799 129.03C315.374 124.208 317.021 119.387 318.74 114.654C325.613 95.7669 329.229 75.5969 335.458 56.4443C338.537 47.0228 341.688 37.6897 343.693 27.8259C345.339 19.7313 347.523 6.59428 340.829 0.976759C338.466 -1.0137 336.747 0.401737 334.528 1.99411C331.485 4.1615 328.585 6.68275 325.9 9.46939C320.888 14.6888 316.448 20.7929 312.51 27.2508C304.276 40.8302 296.937 56.3558 293.93 73.0315C290.493 92.0957 292.032 112.089 294.001 131.286C295.04 141.238 296.257 151.19 296.866 161.231C297.474 171.537 297.08 181.755 296.114 191.973C295.398 199.581 294.395 207.1 293.214 214.62C292.39 208.206 290.958 201.881 289.204 195.821C285.195 181.755 278.715 168.087 268.977 158.975C264.001 154.287 258.237 151.411 251.9 151.854C246.96 152.208 240.516 154.463 239.477 161.408C238.904 165.123 240.372 168.662 241.769 171.803C243.415 175.43 245.062 179.012 246.924 182.463C250.611 189.363 254.872 195.777 259.382 201.881C264.43 208.737 269.979 214.929 275.457 221.21C277.999 224.13 280.54 227.226 282.545 230.72C284.228 233.64 285.66 237.09 285.266 240.761C285.195 241.469 285.266 242.044 285.445 242.575C285.445 245.803 285.338 249.077 285.123 252.306C285.016 253.544 284.872 254.827 284.765 256.065C280.361 274.997 276.137 293.928 272.127 313.037C267.975 332.72 263.464 352.404 257.163 371.247C257.485 366.824 257.7 362.4 257.736 357.977C257.807 346.609 256.626 335.64 253.905 324.803C251.399 314.762 247.747 305.208 243.738 295.963C240.086 287.515 236.076 279.199 230.491 272.52C225.551 266.593 218.319 261.639 211.195 262.966C207.4 263.673 204.106 266.725 202.889 271.326C201.636 275.97 202.424 280.88 203.748 285.392C205.037 289.771 206.827 293.928 208.546 298.042C210.73 303.262 212.985 308.437 215.24 313.612C219.787 323.918 224.441 334.224 228.701 344.752C230.778 349.927 232.783 355.19 234.608 360.543C235.539 363.241 236.47 365.939 237.15 368.77C237.759 371.335 238.117 374.033 238.475 376.643C239.227 382.261 240.551 387.79 241.196 393.452C241.84 399.158 241.446 405.04 240.909 410.702C240.802 411.941 240.766 413.356 240.587 414.683C239.119 418.133 237.616 421.583 236.076 425.033C220.396 460.11 201.672 492.665 181.087 523.539C180.192 524.866 179.297 526.193 178.437 527.52C182.161 517.391 184.738 506.598 186.278 495.673C187.996 483.42 188.462 470.858 187.602 458.473C187.173 452.236 186.421 446 185.383 439.851C184.452 434.455 183.808 429.236 181.337 424.503C180.227 422.424 178.76 420.654 177.507 418.752C176.182 416.718 174.535 415.081 172.674 413.931C168.771 411.543 163.831 411.41 159.642 412.693C157.387 413.4 155.31 414.373 153.556 416.32C152.052 417.912 150.835 419.903 150.048 422.114C149.153 424.591 149.045 427.157 148.687 429.811C148.258 433.084 147.971 436.357 147.792 439.674C147.47 446.044 147.542 452.502 148.365 458.827C149.153 464.931 150.477 470.858 151.838 476.785C153.162 482.536 154.63 488.242 155.561 494.125C156.492 500.184 156.886 506.377 156.635 512.525C156.349 518.939 155.525 525.309 154.738 531.678C153.986 537.649 152.446 543.4 150.549 548.973C148.544 554.767 146.181 560.341 143.747 565.87C142.53 568.612 141.312 571.31 140.095 574.053C139.021 576.485 138.09 579.139 136.766 581.395C136.193 582.368 135.513 582.766 134.761 583.474C134.367 583.872 134.045 584.27 133.794 584.801C133.687 584.978 133.544 585.199 133.436 585.42C133.579 585.332 133.83 585.288 134.26 585.332C133.937 585.332 133.687 585.332 133.4 585.465C133.4 585.553 133.329 585.642 133.329 585.73C133.329 585.995 133.042 585.686 133.329 585.465C132.147 585.951 131.646 587.499 131.968 588.782C131.252 589.623 130.501 590.463 129.785 591.259C123.877 597.85 118.543 605.458 113.281 612.8C102.719 627.485 92.7669 642.878 82.9217 658.316C73.005 673.841 63.482 689.765 54.8541 706.44C51.2383 713.429 47.7656 720.506 44.4004 727.672C46.1904 721.081 47.9088 714.447 49.4482 707.767C53.3505 690.738 55.5701 673.266 56.4293 655.662C57.2886 638.146 57.1095 620.497 56.2145 602.981C55.7849 594.665 55.1047 586.438 53.8517 578.255C52.7419 570.956 51.4173 563.525 48.768 556.802C46.441 550.963 43.0399 546.098 38.3501 543.046C33.3022 539.773 27.3951 539.596 22.2041 542.559C17.2636 545.39 12.9317 550.654 10.8911 556.935C9.63808 560.827 8.67146 564.897 8.02705 569.054C7.38265 573.256 7.16784 577.547 6.91724 581.838C5.91482 599.221 6.38023 616.516 8.20606 633.767C9.10107 642.348 10.2825 650.929 11.3923 659.466C12.5021 668.002 13.5045 676.539 14.5785 685.032C16.7266 702.15 19.519 719.091 22.7411 735.943C23.4571 739.792 24.1373 743.728 24.0657 747.709C23.9583 752.044 23.4929 756.335 22.8485 760.581C22.2041 764.739 21.3806 768.852 20.4856 772.922C19.5548 777.08 18.5166 781.326 18.3018 785.617C18.1944 787.342 18.1586 788.934 17.6216 790.571C17.013 792.473 16.3328 794.242 16.0106 796.277C15.9748 796.586 15.9748 796.896 16.0106 797.205C14.1131 802.469 12.2515 807.733 10.4257 812.997C7.23944 822.241 4.3754 833.742 0.473148 842.367C-1.67488 847.1 4.089 847.852 5.80742 843.782C21.9177 805.344 33.5886 763.722 51.4173 726.566C53.8875 724.532 56.5725 722.983 59.007 720.993C61.6562 718.826 64.2338 716.525 66.9547 714.535C72.3606 710.598 78.554 708.166 84.4611 705.688C87.3968 704.45 90.3324 703.344 93.3755 702.548C96.5617 701.708 99.7837 701.088 103.006 700.381C109.665 698.877 116.216 696.754 122.803 695.028C136.121 691.534 149.69 689.057 163.151 686.403C174.535 684.147 185.956 681.891 196.982 677.557C202.424 675.433 207.722 672.735 212.734 669.285C217.281 666.145 222.007 662.473 225.121 657.21C226.732 654.512 227.842 651.371 227.699 648.009C227.556 644.382 225.837 641.463 223.725 639.119C219.715 634.695 214.31 632.661 209.118 631.466C196.839 628.591 184.201 630.051 171.922 632.351C158.855 634.828 146.145 638.897 133.651 644.25C121.515 649.469 109.951 656.06 98.7813 663.845C90.3682 669.728 82.0625 675.832 74.5086 683.13C76.048 680.52 77.5874 677.91 79.1627 675.345C94.3421 650.619 110.237 626.247 127.493 603.688C136.479 591.967 146.503 581.484 155.633 569.851C164.189 558.925 172.208 547.292 180.12 535.659C180.943 535.482 181.695 534.774 181.874 533.447C181.803 533.978 182.232 532.607 182.018 533.049C182.268 532.563 182.376 532.43 182.519 532.297C183.163 531.545 183.736 531.147 184.416 530.749C184.738 530.572 185.061 530.395 185.383 530.218C185.812 530.572 186.349 530.572 186.815 529.997C187.03 529.732 187.28 529.511 187.495 529.245C188.283 528.936 189.106 528.626 189.894 528.316C194.333 526.724 198.593 524.645 203.068 523.097C215.24 518.939 227.95 518.099 240.444 516.639C265.504 513.764 290.565 509.429 314.873 501.158C319.814 499.477 324.754 497.619 329.301 494.655C331.592 493.196 333.847 491.471 335.781 489.392C336.926 488.197 337.929 486.782 338.967 485.455C340.113 483.995 341.401 482.58 342.368 480.943C343.263 479.439 343.907 477.759 344.194 475.945C344.48 474.043 344.086 472.318 343.872 470.504C343.514 467.541 342.654 465.02 340.721 463.162C339.826 462.277 338.824 461.791 337.821 461.171C336.318 460.287 334.921 459.269 333.346 458.562C330.518 457.191 327.582 456.394 324.611 455.642C318.453 454.05 312.081 453.873 305.816 454.36C299.515 454.846 293.25 455.864 287.056 457.367C274.812 460.375 262.748 464.843 250.969 469.885C239.513 474.751 228.308 480.678 217.818 488.153C212.52 491.913 207.507 496.159 202.674 500.715C223.618 466.17 242.019 429.457 256.626 390.178C257.521 388.232 258.344 386.197 259.239 384.207C260.385 381.597 261.566 379.076 263.034 376.732C264.609 374.21 266.542 372.308 268.619 370.451C273.022 366.602 277.283 362.445 281.829 358.817C286.269 355.279 291.245 352.802 296.078 350.192C306.424 344.53 316.878 339.09 326.938 332.72C331.95 329.536 337.069 326.705 342.332 324.183C347.094 321.928 351.891 319.849 356.545 317.283C365.459 312.418 374.159 305.65 376.665 293.265C377.631 288.488 377.631 282.782 374.803 278.889L374.875 278.712ZM305.887 208.162C310.685 198.563 315.732 189.186 321.711 180.649C327.403 172.51 333.847 165.079 341.008 158.931C348.132 152.783 356.008 147.386 364.314 143.98C368.144 142.388 372.44 141.326 376.307 141.326C377.846 141.326 379.6 141.326 380.818 142.078C380.925 142.167 381.104 142.255 381.319 142.521L381.426 142.698L381.498 142.875C381.498 142.875 381.534 143.007 381.57 143.051C381.57 143.096 381.57 143.184 381.57 143.361V143.671C381.57 143.671 381.57 144.246 381.57 144.202C381.462 145.352 381.426 145.396 381.176 146.28C380.889 147.254 380.567 148.182 380.173 149.111C379.565 150.615 378.992 151.765 378.097 153.313C376.092 156.764 373.622 159.86 371.116 162.735C359.481 176.137 345.053 184.851 331.556 194.98C328.119 197.546 324.718 200.244 321.46 203.119C318.131 206.038 315.052 209.312 311.794 212.32C310.148 213.868 308.429 215.327 306.746 216.787C309.467 212.983 312.224 209.223 315.124 205.64C321.46 197.767 328.477 191.088 336.103 185.249C340.363 181.976 344.695 178.88 348.955 175.651C350.065 174.81 348.955 172.422 347.81 173.218C340.005 178.659 332.022 183.922 324.826 190.557C317.594 197.236 311.257 205.287 305.279 213.602C303.381 216.256 301.52 218.954 299.658 221.653C301.591 217.052 303.703 212.541 305.923 208.117L305.887 208.162ZM297.617 93.7322C298.011 78.1624 301.054 63.9196 307.176 50.2517C312.475 38.3974 318.811 26.8085 326.866 17.5639C330.375 13.5388 334.17 10.0444 338.358 7.21354C341.33 10.7964 339.468 20.1294 338.788 24.0219C337.427 31.8068 335.136 39.3705 332.738 46.7131C329.408 56.9308 326.401 67.1928 323.752 77.7201C320.136 92.0514 315.768 105.631 311.007 119.431C309.79 122.97 308.536 126.509 307.534 130.136C306.532 133.763 306.138 137.567 305.35 141.282C304.742 144.29 303.99 147.607 302.987 150.748C303.31 140.663 303.668 130.622 304.742 120.626C306.03 108.594 308.286 96.6516 310.792 84.93C312.224 78.2067 313.871 71.5718 315.732 64.9812C316.198 63.3003 314.229 62.2387 313.656 63.9196C309.933 75.2873 307.319 87.0974 305.171 99.0401C302.987 111.248 301.412 123.456 300.804 135.974C300.732 137.699 300.625 139.38 300.553 141.105C299.014 125.358 297.224 109.656 297.617 93.688V93.7322ZM284.264 222.183C279.932 216.3 274.92 211.302 270.302 205.773C261.387 195.069 253.225 183.038 247.174 169.591C246.244 167.556 244.31 164.239 245.062 161.939C245.599 160.346 247.676 159.462 249.251 159.019C250.289 158.754 251.327 158.577 252.401 158.489C252.544 158.489 253.44 158.489 253.44 158.444C254.156 158.444 254.836 158.533 255.552 158.621C258.237 159.064 260.85 160.346 263.141 162.16C272.629 169.502 278.929 181.932 282.975 194.538C285.338 201.881 287.164 209.621 287.987 217.45C287.987 217.583 287.987 217.76 288.023 217.893C285.982 212.762 283.655 207.808 280.827 203.296C275.958 195.467 270.087 188.744 264.215 182.109C262.891 180.605 261.172 183.347 262.497 184.851C268.261 191.353 273.989 197.944 278.715 205.596C282.796 212.231 285.445 219.751 288.488 227.049C288.488 227.757 288.488 228.464 288.488 229.172C287.271 226.607 285.767 224.218 284.192 222.095L284.264 222.183ZM27.8605 764.341C27.8605 764.341 28.2185 764.606 28.4691 764.606C28.0395 765.712 27.5741 766.774 27.1445 767.879C27.3951 766.685 27.6457 765.535 27.8605 764.341ZM46.8348 695.028C45.0448 705.025 42.6819 714.889 40.0685 724.62C40.4265 720.86 40.7487 717.145 40.9277 713.341C41.9301 692.861 40.2475 672.337 37.8131 652.079C36.4169 640.578 34.8058 629.122 33.3022 617.666C33.0158 615.499 30.2592 615.941 30.5456 618.152C33.1232 637.836 36.0589 657.519 37.5267 677.38C38.2427 687.332 38.6365 697.329 38.3501 707.369C38.0995 717.277 37.1687 727.185 35.8798 736.917C35.5934 739.084 35.1996 741.119 34.7342 743.153V743.242C33.517 747.223 32.2998 751.159 31.011 755.096C30.9036 755.494 30.832 755.848 30.832 756.202C30.1876 758.104 29.4 759.917 28.3259 761.377C28.9703 757.485 29.4358 753.548 29.579 749.567C29.9012 741.296 27.9321 733.643 26.4643 725.637C24.9249 717.41 23.6003 709.094 22.3473 700.779C19.877 684.147 18.0154 667.383 15.76 650.708C13.5403 634.165 11.6429 617.533 11.5713 600.725C11.5713 592.453 11.8577 584.138 12.3947 575.91C12.6453 571.974 13.1823 568.081 14.0773 564.277C14.9008 560.871 15.7958 557.598 17.55 554.767C20.414 550.167 24.7101 546.761 29.4716 546.54C34.0182 546.319 38.4575 549.681 41.2141 553.927C44.114 558.439 45.8324 564.321 46.9422 569.939C48.5174 577.857 49.6272 585.907 50.2717 594.046C51.5963 610.677 51.9185 627.574 51.5247 644.294C51.1309 661.323 49.7346 678.353 46.7632 695.028H46.8348ZM61.692 706.131C62.0142 705.512 62.3364 704.892 62.6586 704.273C62.9092 704.185 63.1598 704.052 63.4104 703.875C62.8376 704.627 62.2648 705.379 61.692 706.131ZM77.4084 687.597C82.4205 682.732 87.8264 678.618 93.2681 674.549C103.937 666.631 115.035 659.466 126.634 653.848C138.377 648.186 150.549 643.542 162.9 640.578C175.036 637.659 187.71 635.315 200.097 636.332C205.073 636.73 210.228 637.482 214.918 639.694C217.102 640.711 219.286 642.082 220.968 644.161C221.684 645.046 222.329 646.063 222.579 647.302C222.758 648.142 222.615 649.204 222.436 649.956C221.004 655.219 216.279 658.802 212.627 661.589C208.009 665.083 202.997 667.781 197.913 669.993C187.495 674.46 176.576 676.672 165.692 678.795C152.912 681.316 140.095 683.749 127.386 686.713C120.906 688.217 114.462 690.119 108.018 691.932C101.86 693.613 95.5593 694.542 89.4374 696.488C83.2439 698.434 77.0862 701.221 71.1791 704.273C68.3151 705.733 65.6301 707.546 63.0524 709.537C65.2005 706.529 67.4201 703.654 69.8903 701.088C74.2938 696.444 79.3417 693.171 84.6043 690.251C90.1534 687.155 95.8099 684.413 101.323 681.272C106.478 678.309 111.777 675.787 117.398 674.416C124.45 672.691 131.682 672.956 138.699 671.099C140.203 670.701 139.916 667.87 138.377 668.179C131.861 669.374 125.202 669.285 118.686 670.656C112.994 671.806 107.517 674.107 102.218 677.026C96.4185 680.211 90.5472 683.263 84.7475 686.447C79.4133 689.367 74.1506 692.551 69.5323 697.063C67.9929 698.567 66.5251 700.204 65.1289 701.884C68.9237 696.798 73.005 692.065 77.4084 687.774V687.597ZM161.611 551.361C161.146 552.158 160.645 552.998 160.143 553.794L159.964 554.015C163.401 544.063 166.766 534.067 169.237 523.672C172.28 510.977 173.783 497.973 173.139 484.747C172.96 481.165 172.638 477.626 172.065 474.132C171.492 470.637 170.812 467.054 171.313 463.472C171.528 461.879 169.452 461.083 169.022 462.72C167.518 468.602 169.523 474.707 170.06 480.634C170.669 487.18 170.669 493.859 170.168 500.45C169.165 513.852 165.836 526.768 161.862 539.242C159.642 546.23 157.172 553.175 154.773 560.075C154.666 560.429 154.63 560.783 154.666 561.093C152.625 563.791 150.549 566.445 148.472 569.099C148.329 569.276 148.186 569.453 148.007 569.629C148.616 568.347 149.188 567.064 149.797 565.781C154.702 555.077 158.819 543.798 160.215 531.545C160.931 525.264 161.719 518.983 161.933 512.658C162.148 506.465 161.79 500.273 160.859 494.213C159.069 482.536 155.239 471.478 153.341 459.8C152.375 453.74 152.052 447.636 152.231 441.444C152.339 438.347 152.518 435.251 152.84 432.155C153.091 429.678 153.091 426.98 153.807 424.591C154.415 422.556 155.454 420.92 156.85 419.593C158.461 418.045 160.68 417.381 162.649 417.072C166.408 416.452 170.776 417.293 173.497 420.831C174.141 421.672 174.607 422.733 175.287 423.574C175.967 424.414 176.647 425.299 177.22 426.272C178.33 428.13 179.153 430.209 179.726 432.42C180.371 434.897 180.621 437.596 181.051 440.161C181.552 443.169 181.982 446.221 182.34 449.317C183.772 461.348 183.951 473.468 182.841 485.588C181.767 497.442 179.547 509.119 176.039 520.222C172.459 531.545 167.268 541.63 161.468 551.406L161.611 551.361ZM212.484 498.415C222.221 490.321 232.926 484.04 243.845 478.776C254.979 473.424 266.507 469.001 278.106 465.418C289.884 461.791 302.236 459.048 314.408 459.756C320.279 460.11 326.473 461.26 331.95 464.047C333.275 464.71 334.492 465.595 335.781 466.391C336.604 466.877 337.535 467.364 338.072 468.072C338.609 468.735 338.824 469.399 338.931 470.328C339.074 471.699 339.54 473.247 339.289 474.618C339.039 476.122 338.143 477.228 337.284 478.289C336.174 479.705 335.065 481.12 333.955 482.536C332.308 484.615 330.411 486.34 328.37 487.711C323.967 490.719 319.133 492.621 314.336 494.302C290.851 502.485 266.471 506.554 242.234 509.385C229.847 510.844 217.317 511.596 205.18 515.268C203.569 515.754 201.994 516.285 200.419 516.86C214.775 506.023 231.709 500.317 247.962 495.805C254.084 494.125 260.242 492.532 266.328 490.719C267.76 490.276 267.545 487.49 266.005 487.799C254.728 490.276 243.487 493.24 232.46 497.044C221.434 500.804 210.515 505.625 200.598 512.747C197.054 515.268 193.688 518.099 190.502 521.239C190.144 521.372 189.75 521.549 189.392 521.681C196.696 513.322 204.25 505.227 212.52 498.371L212.484 498.415ZM250.396 383.543C249.895 386.286 249.394 389.028 249.108 391.815C249.036 392.39 249.108 392.921 249.251 393.407C248.499 395.354 247.747 397.344 246.96 399.29C246.96 396.371 246.888 393.407 246.53 390.532C246.924 380.845 246.315 371.07 245.42 361.427C244.776 354.483 244.131 347.538 242.843 340.726C241.554 334.092 239.692 327.634 237.508 321.353C235.038 314.231 232.246 307.375 229.489 300.431C228.737 298.573 226.303 299.811 227.055 301.713C231.852 313.789 236.935 325.909 239.728 338.957C241.124 345.548 241.84 352.315 242.485 359.039C242.878 363.285 243.272 367.487 243.559 371.733C242.699 366.293 241.088 361.206 239.298 356.075C232.031 335.242 222.365 315.868 213.952 295.786C212.233 291.673 210.407 287.559 209.083 283.224C208.009 279.774 207.114 275.616 208.474 272.431C209.799 269.291 212.555 269.07 215.097 269.512C217.854 269.999 220.646 271.414 223.116 273.537C228.952 278.491 233.105 286.011 236.577 293.486C240.516 301.935 244.096 310.693 246.888 319.804C249.895 329.58 251.9 339.709 252.365 350.192C252.616 355.765 252.509 361.383 252.186 366.956C251.864 372.53 251.435 378.059 250.396 383.543V383.543ZM356.438 309.719C347.129 315.072 337.105 318.301 327.976 324.139C318.382 330.288 308.501 335.64 298.62 341.036C293.858 343.646 289.025 346.079 284.371 348.954C280.576 351.342 277.032 354.217 273.595 357.269C276.638 353.554 279.896 350.059 283.261 346.83C290.851 339.488 299.014 333.03 307.248 326.793C311.938 323.255 316.663 319.716 321.317 316.133C322.427 315.293 321.317 312.86 320.172 313.656C311.401 319.716 302.773 325.997 294.395 332.853C287.235 338.736 280.218 344.973 273.917 352.227C276.28 348.069 278.786 344.088 281.543 340.284C288.309 330.951 295.577 322.016 303.453 314.143C311.508 306.092 320.422 299.236 329.587 293.265C338.466 287.471 347.774 282.34 357.798 280.614C358.979 280.393 360.161 280.261 361.306 280.128C362.166 280.039 363.132 279.995 363.669 280.039C364.457 280.039 365.244 280.128 366.032 280.305C366.426 280.393 366.784 280.482 367.178 280.57C367.178 280.57 367.393 280.659 367.536 280.659C367.643 280.703 367.93 280.791 368.001 280.836C368.395 281.013 368.753 281.189 369.111 281.411C369.505 281.632 369.684 281.765 369.648 281.765C369.934 281.986 370.185 282.251 370.471 282.516C370.471 282.516 370.615 282.649 370.686 282.738C370.758 282.87 370.937 283.091 370.973 283.136C371.402 283.799 371.545 284.197 371.724 284.905C371.868 285.48 371.975 286.763 371.975 287.471C371.724 298.706 363.92 305.429 356.473 309.719H356.438Z" fill="#F9C6C8"/>
</svg>
