<svg width="371" height="777" viewBox="0 0 371 777" fill="none" xmlns="http://www.w3.org/2000/svg">
<path opacity="0.05" d="M11.6239 256.078C14.0263 252.954 17.5956 251.696 21.0963 251.493C25.6609 251.209 30.2942 252.183 34.6872 253.481C39.5607 254.942 44.2626 256.971 48.7929 259.446C58.4369 264.721 67.7377 271.131 76.4207 278.394C84.8292 285.414 92.3454 293.813 99.4154 302.618C102.882 306.919 106.245 311.26 109.3 316.007C110.501 317.874 111.668 319.781 112.766 321.728C107.172 301.279 103.122 280.261 98.3171 259.527C95.7431 248.369 92.9975 237.332 90.4235 226.215C90.3549 226.134 90.3205 226.053 90.2862 225.971C89.6341 224.795 89.1536 223.537 88.6731 222.239C88.227 221.102 87.6092 220.088 86.9571 219.074C85.4814 216.802 83.9026 214.611 82.2209 212.501C79.3037 208.849 75.7343 205.968 72.3023 203.087C68.9046 200.247 65.7128 197.123 62.418 194.161C59.2606 191.32 55.9658 188.724 52.6024 186.208C39.2175 176.267 24.6313 168.233 12.8251 155.574C7.88297 150.299 2.39169 143.888 0.469757 136.098C-0.62851 131.635 0.0579224 126.888 4.03909 124.899C5.68646 124.047 7.53976 123.885 9.32443 123.844C11.4523 123.844 13.5458 123.926 15.6737 124.331C24.6656 125.995 33.0398 130.945 40.7962 136.423C48.381 141.779 55.2108 148.189 61.3884 155.655C67.5661 163.121 72.8857 171.439 77.6563 180.244C79.7155 184.058 81.7747 187.912 83.6967 191.848C82.7014 185.478 81.912 179.026 81.3972 172.534C81.0197 167.949 80.9167 163.405 80.951 158.901C80.7794 158.658 80.6422 158.374 80.5735 158.049C80.4706 157.522 80.3676 156.954 80.2646 156.426L80.196 156.061V155.939V155.777H80.1617L80.093 155.493C80.093 155.493 80.0244 155.249 79.9901 155.128C79.7155 154.073 79.4066 153.018 79.0634 152.003C78.9948 151.841 78.9948 151.679 78.9604 151.516V151.395C78.7545 151.07 78.5829 150.746 78.4457 150.421C78.4457 150.421 78.274 150.096 78.3084 150.178C78.2397 150.015 78.1711 149.893 78.0681 149.731C77.8279 149.285 77.7249 148.879 77.7592 148.352C77.7592 147.946 77.9652 147.581 78.2054 147.297C75.7 142.59 74.2586 136.788 73.1603 131.594C72.2337 127.212 71.5816 122.992 70.1744 118.773C68.6643 114.35 67.0856 109.927 65.4382 105.586C58.8487 88.2602 55.3824 69.758 49.4106 52.1891C46.4591 43.5466 43.4389 34.9853 41.5169 25.9371C39.9382 18.5119 37.8446 6.46112 44.2625 1.3081C46.5277 -0.517771 48.1751 0.780627 50.3029 2.24132C53.2202 4.2295 56.0001 6.54227 58.5742 9.09849C63.379 13.8863 67.6347 19.4857 71.41 25.4096C79.3036 37.8661 86.3394 52.1079 89.2223 67.4047C92.517 84.8925 91.0413 103.232 89.1536 120.842C88.1583 129.971 86.9914 139.101 86.408 148.311C85.8246 157.765 86.2021 167.138 87.1287 176.511C87.8151 183.49 88.7761 190.387 89.9087 197.285C90.698 191.402 92.0709 185.599 93.7526 180.041C97.5964 167.138 103.808 154.6 113.144 146.242C117.914 141.941 123.44 139.303 129.514 139.709C134.251 140.034 140.428 142.103 141.424 148.473C141.973 151.882 140.566 155.128 139.227 158.008C137.648 161.336 136.07 164.622 134.285 167.787C130.75 174.117 126.666 180 122.341 185.599C117.502 191.889 112.183 197.569 106.932 203.331C104.495 206.009 102.058 208.849 100.136 212.054C98.5231 214.732 97.1503 217.897 97.5278 221.265C97.5964 221.914 97.5278 222.441 97.3562 222.928C97.3562 225.89 97.4591 228.893 97.6651 231.855C97.768 232.991 97.9053 234.168 98.0083 235.304C102.23 252.67 106.28 270.036 110.123 287.564C114.105 305.62 118.429 323.676 124.469 340.961C124.16 336.903 123.954 332.846 123.92 328.788C123.852 318.361 124.984 308.298 127.592 298.357C129.995 289.147 133.496 280.383 137.339 271.902C140.84 264.153 144.684 256.524 150.038 250.398C154.774 244.961 161.707 240.416 168.537 241.633C172.175 242.283 175.332 245.082 176.499 249.302C177.7 253.562 176.945 258.066 175.675 262.205C174.44 266.222 172.724 270.036 171.076 273.809C168.983 278.597 166.821 283.344 164.658 288.092C160.3 297.546 155.838 307 151.754 316.656C149.763 321.404 147.841 326.232 146.091 331.142C145.199 333.617 144.306 336.092 143.654 338.689C143.071 341.042 142.728 343.517 142.385 345.911C141.664 351.064 140.394 356.136 139.776 361.329C139.158 366.564 139.536 371.96 140.051 377.154C140.154 378.29 140.188 379.588 140.36 380.805C141.767 383.97 143.208 387.135 144.684 390.3C159.716 422.476 177.666 452.339 197.4 480.66C198.258 481.878 199.116 483.095 199.94 484.312C196.37 475.02 193.899 465.12 192.424 455.098C190.776 443.859 190.33 432.336 191.154 420.975C191.566 415.254 192.286 409.533 193.282 403.893C194.174 398.942 194.792 394.155 197.16 389.813C198.224 387.906 199.631 386.283 200.832 384.538C202.102 382.672 203.681 381.171 205.465 380.116C209.206 377.925 213.943 377.803 217.958 378.98C220.12 379.629 222.111 380.521 223.792 382.307C225.234 383.767 226.401 385.593 227.156 387.622C228.014 389.894 228.117 392.248 228.46 394.682C228.872 397.685 229.146 400.687 229.318 403.73C229.627 409.573 229.558 415.497 228.769 421.299C228.014 426.899 226.744 432.336 225.44 437.773C224.17 443.047 222.763 448.282 221.871 453.678C220.978 459.237 220.601 464.917 220.841 470.557C221.115 476.441 221.905 482.283 222.66 488.126C223.381 493.604 224.856 498.879 226.675 503.991C228.597 509.306 230.862 514.419 233.196 519.491C234.363 522.006 235.53 524.481 236.697 526.997C237.727 529.229 238.619 531.663 239.889 533.732C240.438 534.625 241.09 534.99 241.811 535.639C242.188 536.005 242.497 536.37 242.737 536.857C242.84 537.019 242.978 537.222 243.081 537.425C242.943 537.344 242.703 537.303 242.291 537.344C242.6 537.344 242.84 537.344 243.115 537.465C243.115 537.546 243.183 537.628 243.183 537.709C243.183 537.952 243.458 537.668 243.183 537.465C244.316 537.912 244.797 539.332 244.488 540.508C245.174 541.279 245.895 542.05 246.581 542.781C252.244 548.826 257.358 555.805 262.403 562.541C272.527 576.011 282.068 590.132 291.507 604.292C301.013 618.534 310.143 633.141 318.414 648.438C321.88 654.848 325.209 661.34 328.435 667.914C326.719 661.868 325.072 655.782 323.596 649.655C319.855 634.034 317.727 618.006 316.904 601.858C316.08 585.79 316.252 569.601 317.11 553.533C317.521 545.905 318.174 538.358 319.375 530.852C320.439 524.157 321.709 517.34 324.248 511.173C326.479 505.817 329.739 501.354 334.235 498.554C339.075 495.551 344.737 495.389 349.714 498.108C354.45 500.704 358.603 505.533 360.559 511.294C361.76 514.865 362.687 518.598 363.305 522.412C363.923 526.267 364.129 530.202 364.369 534.138C365.33 550.084 364.884 565.949 363.133 581.773C362.275 589.645 361.143 597.516 360.079 605.347C359.015 613.178 358.054 621.009 357.024 628.799C354.965 644.502 352.288 660.042 349.199 675.501C348.513 679.031 347.861 682.642 347.929 686.294C348.032 690.27 348.478 694.206 349.096 698.101C349.714 701.915 350.503 705.689 351.361 709.422C352.254 713.236 353.249 717.131 353.455 721.067C353.558 722.649 353.592 724.11 354.107 725.611C354.69 727.356 355.342 728.979 355.651 730.845C355.686 731.129 355.686 731.413 355.651 731.697C357.47 736.526 359.255 741.354 361.005 746.183C364.06 754.663 366.805 765.212 370.546 773.124C372.606 777.466 367.08 778.156 365.433 774.423C349.989 739.163 338.8 700.982 321.709 666.899C319.34 665.033 316.766 663.613 314.433 661.787C311.893 659.799 309.422 657.689 306.813 655.863C301.631 652.252 295.694 650.02 290.031 647.748C287.217 646.612 284.402 645.597 281.485 644.867C278.431 644.096 275.342 643.528 272.253 642.879C265.869 641.499 259.589 639.552 253.274 637.969C240.507 634.764 227.499 632.492 214.595 630.057C203.681 627.988 192.733 625.919 182.162 621.942C176.945 619.995 171.866 617.52 167.061 614.355C162.702 611.474 158.172 608.106 155.186 603.278C153.642 600.803 152.578 597.922 152.715 594.838C152.852 591.511 154.5 588.833 156.525 586.683C160.368 582.625 165.551 580.759 170.527 579.663C182.299 577.026 194.414 578.365 206.186 580.475C218.713 582.747 230.897 586.48 242.875 591.389C254.509 596.177 265.595 602.223 276.303 609.364C284.368 614.76 292.33 620.36 299.572 627.055C298.096 624.661 296.62 622.267 295.11 619.914C280.558 597.232 265.32 574.875 248.778 554.182C240.163 543.43 230.554 533.814 221.802 523.142C213.599 513.12 205.912 502.449 198.327 491.778C197.537 491.616 196.817 490.966 196.645 489.749C196.714 490.236 196.302 488.978 196.508 489.384C196.268 488.938 196.165 488.816 196.027 488.694C195.41 488.004 194.86 487.639 194.208 487.274C193.899 487.112 193.591 486.949 193.282 486.787C192.87 487.112 192.355 487.112 191.909 486.584C191.703 486.341 191.463 486.138 191.257 485.895C190.502 485.611 189.712 485.326 188.957 485.042C184.702 483.582 180.617 481.675 176.327 480.255C164.658 476.441 152.475 475.67 140.497 474.331C116.473 471.693 92.4484 467.717 69.1448 460.129C64.4086 458.588 59.6724 456.883 55.3137 454.165C53.1172 452.826 50.955 451.244 49.1017 449.337C48.0035 448.241 47.0425 446.943 46.0472 445.725C44.9489 444.386 43.7134 443.088 42.7868 441.587C41.9288 440.207 41.311 438.665 41.0364 437.002C40.7619 435.257 41.1394 433.675 41.3453 432.011C41.6885 429.293 42.5122 426.98 44.3655 425.276C45.2235 424.464 46.1845 424.018 47.1455 423.45C48.5869 422.638 49.9254 421.705 51.4355 421.056C54.1468 419.798 56.9611 419.068 59.8097 418.378C65.7128 416.917 71.8218 416.755 77.8279 417.201C83.8683 417.647 89.8743 418.581 95.8118 419.96C107.549 422.719 119.115 426.817 130.407 431.443C141.389 435.906 152.132 441.343 162.187 448.2C167.267 451.649 172.072 455.544 176.705 459.724C156.627 428.035 138.987 394.358 124.984 358.327C124.126 356.542 123.337 354.675 122.479 352.849C121.38 350.455 120.248 348.143 118.841 345.992C117.331 343.679 115.477 341.935 113.487 340.231C109.265 336.701 105.181 332.886 100.823 329.559C96.5668 326.313 91.7963 324.041 87.163 321.647C77.2444 316.454 67.2229 311.463 57.5789 305.62C52.774 302.699 47.8662 300.102 42.8211 297.789C38.2565 295.72 33.6575 293.813 29.1959 291.459C20.6501 286.996 12.3103 280.788 9.90787 269.427C8.98123 265.045 8.9812 259.811 11.6925 256.24L11.6239 256.078ZM77.7592 191.361C73.1603 182.556 68.3212 173.954 62.5897 166.123C57.1327 158.658 50.955 151.841 44.091 146.201C37.2612 140.561 29.7107 135.611 21.7484 132.487C18.0761 131.026 13.9577 130.052 10.2511 130.052C8.7753 130.052 7.0936 130.052 5.9267 130.742C5.82373 130.823 5.65213 130.904 5.4462 131.148L5.34326 131.31L5.27463 131.472C5.27463 131.472 5.2403 131.594 5.20596 131.635C5.20596 131.675 5.20596 131.757 5.20596 131.919V132.203C5.20596 132.203 5.20596 132.73 5.20596 132.69C5.30893 133.745 5.34326 133.785 5.5835 134.597C5.85806 135.489 6.16693 136.341 6.54446 137.194C7.1279 138.573 7.67703 139.628 8.53503 141.048C10.457 144.213 12.8251 147.053 15.2275 149.691C26.3816 161.985 40.2128 169.978 53.1516 179.27C56.4463 181.623 59.7067 184.098 62.8299 186.736C66.0217 189.413 68.9732 192.416 72.0964 195.175C73.6751 196.595 75.3225 197.934 76.9356 199.273C74.3272 195.784 71.6845 192.335 68.9046 189.048C62.8299 181.826 56.1031 175.699 48.7929 170.343C44.7087 167.341 40.556 164.5 36.4718 161.538C35.4079 160.768 36.4718 158.577 37.5701 159.307C45.0519 164.298 52.7054 169.126 59.6038 175.212C66.5365 181.339 72.6112 188.724 78.3427 196.352C80.1617 198.786 81.9463 201.261 83.731 203.736C81.8777 199.517 79.8528 195.378 77.7249 191.321L77.7592 191.361ZM85.6873 86.3937C85.3098 72.1114 82.3925 59.0462 76.5237 46.5086C71.4443 35.6345 65.3696 25.0039 57.6475 16.5237C54.2841 12.8314 50.6461 9.62596 46.6307 7.02917C43.7821 10.3157 45.5667 18.877 46.2188 22.4476C47.523 29.5888 49.7195 36.5271 52.019 43.2626C55.2108 52.6354 58.0937 62.0488 60.6334 71.7056C64.0998 84.8519 68.2868 97.3084 72.8514 109.968C74.0183 113.214 75.2195 116.46 76.1805 119.787C77.1415 123.114 77.519 126.603 78.274 130.012C78.8575 132.771 79.5782 135.814 80.5392 138.695C80.2303 129.444 79.8871 120.233 78.8575 111.063C77.622 100.027 75.4598 89.0717 73.0574 78.3193C71.6846 72.1519 70.1058 66.0657 68.3211 60.02C67.875 58.4782 69.7626 57.5044 70.3117 59.0462C73.881 69.474 76.3864 80.3075 78.4457 91.2627C80.5392 102.461 82.0493 113.66 82.6328 125.143C82.7014 126.725 82.8044 128.267 82.873 129.849C84.3488 115.405 86.0648 101.001 85.6873 86.3532V86.3937ZM98.4888 204.223C102.642 198.827 107.446 194.242 111.874 189.17C120.419 179.351 128.245 168.315 134.045 155.98C134.937 154.113 136.79 151.07 136.07 148.96C135.555 147.5 133.564 146.688 132.054 146.282C131.059 146.039 130.064 145.877 129.034 145.795C128.897 145.795 128.039 145.795 128.039 145.755C127.352 145.755 126.7 145.836 126.014 145.917C123.44 146.323 120.934 147.5 118.738 149.163C109.643 155.899 103.603 167.3 99.7243 178.864C97.4592 185.599 95.7088 192.7 94.9194 199.882C94.9194 200.004 94.9194 200.166 94.8851 200.288C96.8414 195.581 99.0722 191.036 101.784 186.898C106.451 179.716 112.08 173.549 117.708 167.462C118.978 166.083 120.625 168.599 119.356 169.978C113.83 175.943 108.339 181.988 103.808 189.008C99.8959 195.094 97.3562 201.992 94.439 208.687C94.439 209.336 94.439 209.985 94.439 210.634C95.6059 208.281 97.0473 206.09 98.5574 204.142L98.4888 204.223ZM344.291 701.55C344.291 701.55 343.948 701.794 343.708 701.794C344.12 702.808 344.566 703.782 344.978 704.796C344.737 703.701 344.497 702.646 344.291 701.55ZM326.102 637.969C327.818 647.139 330.083 656.187 332.588 665.114C332.245 661.665 331.936 658.257 331.764 654.767C330.803 635.981 332.416 617.154 334.75 598.571C336.089 588.022 337.633 577.513 339.075 567.004C339.349 565.016 341.992 565.421 341.717 567.45C339.246 585.506 336.432 603.562 335.025 621.78C334.338 630.909 333.961 640.079 334.235 649.29C334.476 658.379 335.368 667.467 336.604 676.394C336.878 678.382 337.256 680.248 337.702 682.115V682.196C338.869 685.848 340.036 689.459 341.271 693.07C341.374 693.435 341.443 693.76 341.443 694.084C342.06 695.829 342.816 697.493 343.845 698.832C343.227 695.261 342.781 691.65 342.644 687.998C342.335 680.411 344.223 673.391 345.63 666.047C347.106 658.5 348.375 650.872 349.577 643.244C351.945 627.988 353.729 612.61 355.892 597.313C358.019 582.138 359.838 566.882 359.907 551.464C359.907 543.876 359.633 536.248 359.118 528.701C358.877 525.09 358.363 521.519 357.505 518.03C356.715 514.906 355.857 511.903 354.176 509.306C351.43 505.086 347.312 501.962 342.747 501.759C338.388 501.556 334.132 504.64 331.49 508.535C328.71 512.674 327.062 518.07 325.999 523.223C324.488 530.486 323.425 537.871 322.807 545.337C321.537 560.593 321.228 576.093 321.606 591.43C321.983 607.051 323.322 622.673 326.17 637.969H326.102ZM311.859 648.154C311.55 647.586 311.241 647.018 310.932 646.45C310.692 646.368 310.451 646.247 310.211 646.084C310.76 646.774 311.309 647.464 311.859 648.154ZM296.792 631.153C291.987 626.69 286.805 622.916 281.588 619.183C271.361 611.92 260.721 605.347 249.601 600.194C238.344 595 226.675 590.74 214.835 588.022C203.2 585.344 191.051 583.193 179.176 584.126C174.405 584.492 169.463 585.181 164.967 587.21C162.874 588.143 160.78 589.401 159.167 591.308C158.481 592.12 157.863 593.053 157.623 594.189C157.451 594.96 157.588 595.934 157.76 596.624C159.133 601.452 163.663 604.738 167.164 607.295C171.591 610.5 176.396 612.975 181.27 615.004C191.257 619.102 201.724 621.131 212.158 623.078C224.41 625.391 236.697 627.623 248.881 630.341C255.093 631.721 261.27 633.465 267.448 635.129C273.351 636.671 279.391 637.523 285.26 639.308C291.198 641.094 297.101 643.65 302.764 646.45C305.509 647.789 308.083 649.452 310.554 651.278C308.495 648.519 306.367 645.881 303.999 643.528C299.778 639.268 294.939 636.265 289.894 633.587C284.574 630.747 279.151 628.231 273.866 625.351C268.924 622.632 263.844 620.319 258.456 619.061C251.695 617.479 244.762 617.722 238.035 616.018C236.594 615.653 236.869 613.056 238.344 613.34C244.591 614.436 250.974 614.355 257.221 615.613C262.677 616.667 267.928 618.777 273.008 621.455C278.568 624.377 284.196 627.176 289.756 630.098C294.87 632.776 299.915 635.697 304.342 639.836C305.818 641.215 307.225 642.717 308.564 644.258C304.926 639.592 301.013 635.251 296.792 631.315V631.153ZM216.07 506.182C216.517 506.912 216.997 507.683 217.478 508.414L217.649 508.616C214.354 499.487 211.128 490.317 208.76 480.782C205.843 469.137 204.401 457.208 205.019 445.076C205.191 441.79 205.5 438.544 206.049 435.338C206.598 432.133 207.25 428.846 206.77 425.56C206.564 424.099 208.554 423.369 208.966 424.87C210.408 430.266 208.486 435.866 207.971 441.303C207.387 447.308 207.387 453.435 207.868 459.48C208.829 471.774 212.021 483.622 215.83 495.064C217.958 501.475 220.326 507.846 222.626 514.175C222.729 514.5 222.763 514.824 222.729 515.108C224.685 517.584 226.675 520.018 228.666 522.452C228.803 522.615 228.941 522.777 229.112 522.939C228.529 521.763 227.98 520.586 227.396 519.409C222.694 509.59 218.747 499.244 217.409 488.004C216.722 482.243 215.967 476.481 215.761 470.679C215.556 464.998 215.899 459.318 216.791 453.759C218.507 443.047 222.179 432.904 223.998 422.192C224.925 416.633 225.234 411.034 225.062 405.353C224.959 402.513 224.788 399.673 224.479 396.833C224.239 394.56 224.239 392.085 223.552 389.894C222.969 388.028 221.973 386.527 220.635 385.309C219.091 383.889 216.963 383.281 215.075 382.996C211.471 382.428 207.284 383.199 204.676 386.445C204.058 387.216 203.612 388.19 202.96 388.961C202.308 389.732 201.656 390.543 201.107 391.436C200.043 393.14 199.253 395.047 198.704 397.076C198.087 399.348 197.846 401.823 197.434 404.177C196.954 406.936 196.542 409.735 196.199 412.576C194.826 423.612 194.654 434.73 195.718 445.847C196.748 456.721 198.876 467.433 202.239 477.617C205.671 488.004 210.648 497.256 216.208 506.223L216.07 506.182ZM167.301 457.614C157.966 450.189 147.704 444.427 137.236 439.599C126.563 434.689 115.512 430.631 104.392 427.345C93.1005 424.018 81.2599 421.502 69.591 422.151C63.9625 422.476 58.025 423.531 52.774 426.087C51.5042 426.696 50.3373 427.507 49.1017 428.238C48.3124 428.684 47.42 429.13 46.9052 429.779C46.3904 430.388 46.1845 430.997 46.0815 431.849C45.9443 433.107 45.4981 434.527 45.7383 435.784C45.9786 437.164 46.8366 438.178 47.6603 439.152C48.7242 440.451 49.7881 441.749 50.8521 443.047C52.4308 444.954 54.2498 446.537 56.2061 447.795C60.4275 450.554 65.0607 452.298 69.6596 453.84C92.1738 461.347 115.546 465.08 138.781 467.676C150.656 469.015 162.668 469.705 174.302 473.073C175.847 473.519 177.357 474.006 178.867 474.534C165.105 464.593 148.871 459.359 133.29 455.22C127.421 453.678 121.518 452.217 115.683 450.554C114.31 450.148 114.516 447.592 115.992 447.876C126.803 450.148 137.58 452.867 148.15 456.356C158.721 459.805 169.189 464.228 178.695 470.76C182.093 473.073 185.319 475.67 188.374 478.55C188.717 478.672 189.095 478.834 189.438 478.956C182.436 471.288 175.195 463.862 167.267 457.573L167.301 457.614ZM130.956 352.241C131.436 354.756 131.917 357.272 132.191 359.828C132.26 360.356 132.191 360.843 132.054 361.289C132.775 363.074 133.496 364.9 134.251 366.685C134.251 364.007 134.319 361.289 134.662 358.652C134.285 349.766 134.868 340.799 135.726 331.953C136.344 325.583 136.962 319.213 138.197 312.964C139.433 306.878 141.218 300.954 143.311 295.192C145.679 288.66 148.356 282.371 150.999 276C151.72 274.296 154.053 275.432 153.333 277.177C148.734 288.254 143.86 299.372 141.183 311.341C139.845 317.387 139.158 323.595 138.541 329.762C138.163 333.657 137.786 337.512 137.511 341.407C138.335 336.416 139.879 331.75 141.595 327.044C148.562 307.933 157.829 290.161 165.894 271.74C167.541 267.967 169.292 264.193 170.562 260.217C171.591 257.052 172.449 253.238 171.145 250.316C169.875 247.436 167.232 247.233 164.796 247.639C162.153 248.085 159.476 249.383 157.108 251.331C151.514 255.875 147.533 262.773 144.204 269.63C140.428 277.38 136.996 285.414 134.319 293.772C131.436 302.739 129.514 312.031 129.068 321.647C128.828 326.76 128.931 331.913 129.24 337.025C129.549 342.138 129.961 347.209 130.956 352.241ZM29.2989 284.521C38.2222 289.431 47.8319 292.393 56.5836 297.749C65.7815 303.388 75.2539 308.298 84.7263 313.248C89.2909 315.642 93.9242 317.874 98.3858 320.511C102.024 322.702 105.421 325.34 108.716 328.139C105.799 324.731 102.676 321.525 99.4497 318.564C92.1738 311.828 84.3488 305.904 76.4551 300.183C71.9591 296.937 67.4288 293.691 62.9672 290.405C61.9032 289.634 62.9672 287.402 64.0654 288.132C72.4739 293.691 80.7451 299.453 88.7761 305.742C95.6402 311.138 102.367 316.859 108.407 323.514C106.142 319.7 103.74 316.048 101.097 312.558C94.6106 303.997 87.6435 295.801 80.093 288.579C72.371 281.194 63.8252 274.905 55.0392 269.427C46.5277 264.112 37.6044 259.405 27.9947 257.823C26.8621 257.62 25.7296 257.498 24.6313 257.376C23.8076 257.295 22.881 257.255 22.3661 257.295C21.6111 257.295 20.856 257.376 20.101 257.539C19.7235 257.62 19.3803 257.701 19.0028 257.782C19.0028 257.782 18.7968 257.863 18.6595 257.863C18.5566 257.904 18.282 257.985 18.2134 258.026C17.8358 258.188 17.4927 258.35 17.1495 258.553C16.7719 258.756 16.6003 258.878 16.6347 258.878C16.3601 259.081 16.1198 259.324 15.8453 259.568C15.8453 259.568 15.708 259.689 15.6394 259.77C15.5707 259.892 15.3991 260.095 15.3648 260.136C14.953 260.744 14.8157 261.109 14.6441 261.759C14.5068 262.286 14.4038 263.463 14.4038 264.112C14.6441 274.418 22.1259 280.585 29.2646 284.521H29.2989Z" fill="#F9C6C8"/>
</svg>
