<?xml version="1.0" encoding="UTF-8"?><svg id="Camada_2" xmlns="http://www.w3.org/2000/svg" viewBox="0 0 108.06 191.34"><defs><style>.cls-1{fill:#3f424a;}</style></defs><g id="Camada_1-2"><path class="cls-1" d="M104.67,63.03c-.7-.77-1.74-1.08-2.76-1.13-1.33-.07-2.68,.17-3.96,.49-1.42,.36-2.79,.86-4.11,1.47-2.81,1.3-5.52,2.88-8.05,4.67-2.45,1.73-4.64,3.8-6.7,5.97-1.01,1.06-1.99,2.13-2.88,3.3-.35,.46-.69,.93-1.01,1.41,1.63-5.04,2.81-10.22,4.21-15.33,.75-2.75,1.55-5.47,2.3-8.21,.02-.02,.03-.04,.04-.06,.19-.29,.33-.6,.47-.92,.13-.28,.31-.53,.5-.78,.43-.56,.89-1.1,1.38-1.62,.85-.9,1.89-1.61,2.89-2.32,.99-.7,1.92-1.47,2.88-2.2,.92-.7,1.88-1.34,2.86-1.96,3.9-2.45,8.15-4.43,11.59-7.55,1.44-1.3,3.04-2.88,3.6-4.8,.32-1.1,.12-2.27-1.04-2.76-.48-.21-1.02-.25-1.54-.26-.62,0-1.23,.02-1.85,.12-2.62,.41-5.06,1.63-7.32,2.98-2.21,1.32-4.2,2.9-6,4.74-1.8,1.84-3.35,3.89-4.74,6.06-.6,.94-1.2,1.89-1.76,2.86,.29-1.57,.52-3.16,.67-4.76,.11-1.13,.14-2.25,.13-3.36,.05-.06,.09-.13,.11-.21,.03-.13,.06-.27,.09-.4l.02-.09s0-.03,0-.03v-.04h.01l.02-.07s.02-.06,.03-.09c.08-.26,.17-.52,.27-.77,.02-.04,.02-.08,.03-.12v-.03c.06-.08,.11-.16,.15-.24,0,0,.05-.08,.04-.06,.02-.04,.04-.07,.07-.11,.07-.11,.1-.21,.09-.34,0-.1-.06-.19-.13-.26,.73-1.16,1.15-2.59,1.47-3.87,.27-1.08,.46-2.12,.87-3.16,.44-1.09,.9-2.18,1.38-3.25,1.92-4.27,2.93-8.83,4.67-13.16,.86-2.13,1.74-4.24,2.3-6.47,.46-1.83,1.07-4.8-.8-6.07-.66-.45-1.14-.13-1.76,.23-.85,.49-1.66,1.06-2.41,1.69-1.4,1.18-2.64,2.56-3.74,4.02-2.3,3.07-4.35,6.58-5.19,10.35-.96,4.31-.53,8.83,.02,13.17,.29,2.25,.63,4.5,.8,6.77,.17,2.33,.06,4.64-.21,6.95-.2,1.72-.48,3.42-.81,5.12-.23-1.45-.63-2.88-1.12-4.25-1.12-3.18-2.93-6.27-5.65-8.33-1.39-1.06-3-1.71-4.77-1.61-1.38,.08-3.18,.59-3.47,2.16-.16,.84,.25,1.64,.64,2.35,.46,.82,.92,1.63,1.44,2.41,1.03,1.56,2.22,3.01,3.48,4.39,1.41,1.55,2.96,2.95,4.49,4.37,.71,.66,1.42,1.36,1.98,2.15,.47,.66,.87,1.44,.76,2.27-.02,.16,0,.29,.05,.41,0,.73-.03,1.47-.09,2.2-.03,.28-.07,.57-.1,.85-1.23,4.28-2.41,8.56-3.53,12.88-1.16,4.45-2.42,8.9-4.18,13.16,.09-1,.15-2,.16-3,.02-2.57-.31-5.05-1.07-7.5-.7-2.27-1.72-4.43-2.84-6.52-1.02-1.91-2.14-3.79-3.7-5.3-1.38-1.34-3.4-2.46-5.39-2.16-1.06,.16-1.98,.85-2.32,1.89-.35,1.05-.13,2.16,.24,3.18,.36,.99,.86,1.93,1.34,2.86,.61,1.18,1.24,2.35,1.87,3.52,1.27,2.33,2.57,4.66,3.76,7.04,.58,1.17,1.14,2.36,1.65,3.57,.26,.61,.52,1.22,.71,1.86,.17,.58,.27,1.19,.37,1.78,.21,1.27,.58,2.52,.76,3.8,.18,1.29,.07,2.62-.08,3.9-.03,.28-.04,.6-.09,.9-.41,.78-.83,1.56-1.26,2.34-4.38,7.93-9.61,15.29-15.36,22.27-.25,.3-.5,.6-.74,.9,1.04-2.29,1.76-4.73,2.19-7.2,.48-2.77,.61-5.61,.37-8.41-.12-1.41-.33-2.82-.62-4.21-.26-1.22-.44-2.4-1.13-3.47-.31-.47-.72-.87-1.07-1.3-.37-.46-.83-.83-1.35-1.09-1.09-.54-2.47-.57-3.64-.28-.63,.16-1.21,.38-1.7,.82-.42,.36-.76,.81-.98,1.31-.25,.56-.28,1.14-.38,1.74-.12,.74-.2,1.48-.25,2.23-.09,1.44-.07,2.9,.16,4.33,.22,1.38,.59,2.72,.97,4.06,.37,1.3,.78,2.59,1.04,3.92,.26,1.37,.37,2.77,.3,4.16-.08,1.45-.31,2.89-.53,4.33-.21,1.35-.64,2.65-1.17,3.91-.56,1.31-1.22,2.57-1.9,3.82-.34,.62-.68,1.23-1.02,1.85-.3,.55-.56,1.15-.93,1.66-.16,.22-.35,.31-.56,.47-.11,.09-.2,.18-.27,.3-.03,.04-.07,.09-.1,.14,.04-.02,.11-.03,.23-.02-.09,0-.16,0-.24,.03,0,.02-.02,.04-.02,.06,0,.06-.08-.01,0-.06-.33,.11-.47,.46-.38,.75-.2,.19-.41,.38-.61,.56-1.65,1.49-3.14,3.21-4.61,4.87-2.95,3.32-5.73,6.8-8.48,10.29-2.77,3.51-5.43,7.11-7.84,10.88-1.01,1.58-1.98,3.18-2.92,4.8,.5-1.49,.98-2.99,1.41-4.5,1.09-3.85,1.71-7.8,1.95-11.78,.24-3.96,.19-7.95-.06-11.91-.12-1.88-.31-3.74-.66-5.59-.31-1.65-.68-3.33-1.42-4.85-.65-1.32-1.6-2.42-2.91-3.11-1.41-.74-3.06-.78-4.51-.11-1.38,.64-2.59,1.83-3.16,3.25-.35,.88-.62,1.8-.8,2.74-.18,.95-.24,1.92-.31,2.89-.28,3.93-.15,7.84,.36,11.74,.25,1.94,.58,3.88,.89,5.81,.31,1.93,.59,3.86,.89,5.78,.6,3.87,1.38,7.7,2.28,11.51,.2,.87,.39,1.76,.37,2.66-.03,.98-.16,1.95-.34,2.91-.18,.94-.41,1.87-.66,2.79-.26,.94-.55,1.9-.61,2.87-.03,.39-.04,.75-.19,1.12-.17,.43-.36,.83-.45,1.29-.01,.07-.01,.14,0,.21-.53,1.19-1.05,2.38-1.56,3.57-.89,2.09-1.69,4.69-2.78,6.64-.6,1.07,1.01,1.24,1.49,.32,4.5-8.69,7.76-18.1,12.74-26.5,.69-.46,1.44-.81,2.12-1.26,.74-.49,1.46-1.01,2.22-1.46,1.51-.89,3.24-1.44,4.89-2,.82-.28,1.64-.53,2.49-.71,.89-.19,1.79-.33,2.69-.49,1.86-.34,3.69-.82,5.53-1.21,3.72-.79,7.51-1.35,11.27-1.95,3.18-.51,6.37-1.02,9.45-2,1.52-.48,3-1.09,4.4-1.87,1.27-.71,2.59-1.54,3.46-2.73,.45-.61,.76-1.32,.72-2.08-.04-.82-.52-1.48-1.11-2.01-1.12-1-2.63-1.46-4.08-1.73-3.43-.65-6.96-.32-10.39,.2-3.65,.56-7.2,1.48-10.69,2.69-3.39,1.18-6.62,2.67-9.74,4.43-2.35,1.33-4.67,2.71-6.78,4.36,.43-.59,.86-1.18,1.3-1.76,4.24-5.59,8.68-11.1,13.5-16.2,2.51-2.65,5.31-5.02,7.86-7.65,2.39-2.47,4.63-5.1,6.84-7.73,.23-.04,.44-.2,.49-.5-.02,.12,.1-.19,.04-.09,.07-.11,.1-.14,.14-.17,.18-.17,.34-.26,.53-.35,.09-.04,.18-.08,.27-.12,.12,.08,.27,.08,.4-.05,.06-.06,.13-.11,.19-.17,.22-.07,.45-.14,.67-.21,1.24-.36,2.43-.83,3.68-1.18,3.4-.94,6.95-1.13,10.44-1.46,7-.65,14-1.63,20.79-3.5,1.38-.38,2.76-.8,4.03-1.47,.64-.33,1.27-.72,1.81-1.19,.32-.27,.6-.59,.89-.89,.32-.33,.68-.65,.95-1.02,.25-.34,.43-.72,.51-1.13,.08-.43-.03-.82-.09-1.23-.1-.67-.34-1.24-.88-1.66-.25-.2-.53-.31-.81-.45-.42-.2-.81-.43-1.25-.59-.79-.31-1.61-.49-2.44-.66-1.72-.36-3.5-.4-5.25-.29-1.76,.11-3.51,.34-5.24,.68-3.42,.68-6.79,1.69-10.08,2.83-3.2,1.1-6.33,2.44-9.26,4.13-1.48,.85-2.88,1.81-4.23,2.84,5.85-7.81,10.99-16.11,15.07-24.99,.25-.44,.48-.9,.73-1.35,.32-.59,.65-1.16,1.06-1.69,.44-.57,.98-1,1.56-1.42,1.23-.87,2.42-1.81,3.69-2.63,1.24-.8,2.63-1.36,3.98-1.95,2.89-1.28,5.81-2.51,8.62-3.95,1.4-.72,2.83-1.36,4.3-1.93,1.33-.51,2.67-.98,3.97-1.56,2.49-1.1,4.92-2.63,5.62-5.43,.27-1.08,.27-2.37-.52-3.25Zm-19.27-15.95c1.34-2.17,2.75-4.29,4.42-6.22,1.59-1.84,3.39-3.52,5.39-4.91,1.99-1.39,4.19-2.61,6.51-3.38,1.07-.36,2.27-.6,3.35-.6,.43,0,.92,0,1.26,.17,.03,.02,.08,.04,.14,.1l.03,.04,.02,.04s.01,.03,.02,.04c0,.01,0,.03,0,.07v.07s0,.13,0,.12c-.03,.26-.04,.27-.11,.47-.08,.22-.17,.43-.28,.64-.17,.34-.33,.6-.58,.95-.56,.78-1.25,1.48-1.95,2.13-3.25,3.03-7.28,5-11.05,7.29-.96,.58-1.91,1.19-2.82,1.84-.93,.66-1.79,1.4-2.7,2.08-.46,.35-.94,.68-1.41,1.01,.76-.86,1.53-1.71,2.34-2.52,1.77-1.78,3.73-3.29,5.86-4.61,1.19-.74,2.4-1.44,3.59-2.17,.31-.19,0-.73-.32-.55-2.18,1.23-4.41,2.42-6.42,3.92-2.02,1.51-3.79,3.33-5.46,5.21-.53,.6-1.05,1.21-1.57,1.82,.54-1.04,1.13-2.06,1.75-3.06Zm-2.31-25.87c.11-3.52,.96-6.74,2.67-9.83,1.48-2.68,3.25-5.3,5.5-7.39,.98-.91,2.04-1.7,3.21-2.34,.83,.81,.31,2.92,.12,3.8-.38,1.76-1.02,3.47-1.69,5.13-.93,2.31-1.77,4.63-2.51,7.01-1.01,3.24-2.23,6.31-3.56,9.43-.34,.8-.69,1.6-.97,2.42-.28,.82-.39,1.68-.61,2.52-.17,.68-.38,1.43-.66,2.14,.09-2.28,.19-4.55,.49-6.81,.36-2.72,.99-5.42,1.69-8.07,.4-1.52,.86-3.02,1.38-4.51,.13-.38-.42-.62-.58-.24-1.04,2.57-1.77,5.24-2.37,7.94-.61,2.76-1.05,5.52-1.22,8.35-.02,.39-.05,.77-.07,1.16-.43-3.56-.93-7.11-.82-10.72Zm-3.73,29.04c-1.21-1.33-2.61-2.46-3.9-3.71-2.49-2.42-4.77-5.14-6.46-8.18-.26-.46-.8-1.21-.59-1.73,.15-.36,.73-.56,1.17-.66,.29-.06,.58-.1,.88-.12,.04,0,.29,0,.29-.01,.2,0,.39,.02,.59,.04,.75,.1,1.48,.39,2.12,.8,2.65,1.66,4.41,4.47,5.54,7.32,.66,1.66,1.17,3.41,1.4,5.18,0,.03,0,.07,.01,.1-.57-1.16-1.22-2.28-2.01-3.3-1.36-1.77-3-3.29-4.64-4.79-.37-.34-.85,.28-.48,.62,1.61,1.47,3.21,2.96,4.53,4.69,1.14,1.5,1.88,3.2,2.73,4.85,0,.16,0,.32,0,.48-.34-.58-.76-1.12-1.2-1.6ZM7.74,172.82s.1,.06,.17,.06c-.12,.25-.25,.49-.37,.74,.07-.27,.14-.53,.2-.8Zm5.3-15.67c-.5,2.26-1.16,4.49-1.89,6.69,.1-.85,.19-1.69,.24-2.55,.28-4.63-.19-9.27-.87-13.85-.39-2.6-.84-5.19-1.26-7.78-.08-.49-.85-.39-.77,.11,.72,4.45,1.54,8.9,1.95,13.39,.2,2.25,.31,4.51,.23,6.78-.07,2.24-.33,4.48-.69,6.68-.08,.49-.19,.95-.32,1.41v.02c-.34,.9-.68,1.79-1.04,2.68-.03,.09-.05,.17-.05,.25-.18,.43-.4,.84-.7,1.17,.18-.88,.31-1.77,.35-2.67,.09-1.87-.46-3.6-.87-5.41-.43-1.86-.8-3.74-1.15-5.62-.69-3.76-1.21-7.55-1.84-11.32-.62-3.74-1.15-7.5-1.17-11.3,0-1.87,.08-3.75,.23-5.61,.07-.89,.22-1.77,.47-2.63,.23-.77,.48-1.51,.97-2.15,.8-1.04,2-1.81,3.33-1.86,1.27-.05,2.51,.71,3.28,1.67,.81,1.02,1.29,2.35,1.6,3.62,.44,1.79,.75,3.61,.93,5.45,.37,3.76,.46,7.58,.35,11.36-.11,3.85-.5,7.7-1.33,11.47Zm4.15,2.51c.09-.14,.18-.28,.27-.42,.07-.02,.14-.05,.21-.09-.16,.17-.32,.34-.48,.51Zm4.39-4.19c1.4-1.1,2.91-2.03,4.43-2.95,2.98-1.79,6.08-3.41,9.32-4.68,3.28-1.28,6.68-2.33,10.13-3,3.39-.66,6.93-1.19,10.39-.96,1.39,.09,2.83,.26,4.14,.76,.61,.23,1.22,.54,1.69,1.01,.2,.2,.38,.43,.45,.71,.05,.19,.01,.43-.04,.6-.4,1.19-1.72,2-2.74,2.63-1.29,.79-2.69,1.4-4.11,1.9-2.91,1.01-5.96,1.51-9,1.99-3.57,.57-7.15,1.12-10.7,1.79-1.81,.34-3.61,.77-5.41,1.18-1.72,.38-3.48,.59-5.19,1.03-1.73,.44-3.45,1.07-5.1,1.76-.8,.33-1.55,.74-2.27,1.19,.6-.68,1.22-1.33,1.91-1.91,1.23-1.05,2.64-1.79,4.11-2.45,1.55-.7,3.13-1.32,4.67-2.03,1.44-.67,2.92-1.24,4.49-1.55,1.97-.39,3.99-.33,5.95-.75,.42-.09,.34-.73-.09-.66-1.82,.27-3.68,.25-5.5,.56-1.59,.26-3.12,.78-4.6,1.44-1.62,.72-3.26,1.41-4.88,2.13-1.49,.66-2.96,1.38-4.25,2.4-.43,.34-.84,.71-1.23,1.09,1.06-1.15,2.2-2.22,3.43-3.19Zm23.52-30.8c-.13,.18-.27,.37-.41,.55l-.05,.05c.96-2.25,1.9-4.51,2.59-6.86,.85-2.87,1.27-5.81,1.09-8.8-.05-.81-.14-1.61-.3-2.4-.16-.79-.35-1.6-.21-2.41,.06-.36-.52-.54-.64-.17-.42,1.33,.14,2.71,.29,4.05,.17,1.48,.17,2.99,.03,4.48-.28,3.03-1.21,5.95-2.32,8.77-.62,1.58-1.31,3.15-1.98,4.71-.03,.08-.04,.16-.03,.23-.57,.61-1.15,1.21-1.73,1.81-.04,.04-.08,.08-.13,.12,.17-.29,.33-.58,.5-.87,1.37-2.42,2.52-4.97,2.91-7.74,.2-1.42,.42-2.84,.48-4.27,.06-1.4-.04-2.8-.3-4.17-.5-2.64-1.57-5.14-2.1-7.78-.27-1.37-.36-2.75-.31-4.15,.03-.7,.08-1.4,.17-2.1,.07-.56,.07-1.17,.27-1.71,.17-.46,.46-.83,.85-1.13,.45-.35,1.07-.5,1.62-.57,1.05-.14,2.27,.05,3.03,.85,.18,.19,.31,.43,.5,.62,.19,.19,.38,.39,.54,.61,.31,.42,.54,.89,.7,1.39,.18,.56,.25,1.17,.37,1.75,.14,.68,.26,1.37,.36,2.07,.4,2.72,.45,5.46,.14,8.2-.3,2.68-.92,5.32-1.9,7.83-1,2.56-2.45,4.84-4.07,7.05Zm14.21-11.97c2.72-1.83,5.71-3.25,8.76-4.44,3.11-1.21,6.33-2.21,9.57-3.02,3.29-.82,6.74-1.44,10.14-1.28,1.64,.08,3.37,.34,4.9,.97,.37,.15,.71,.35,1.07,.53,.23,.11,.49,.22,.64,.38,.15,.15,.21,.3,.24,.51,.04,.31,.17,.66,.1,.97-.07,.34-.32,.59-.56,.83-.31,.32-.62,.64-.93,.96-.46,.47-.99,.86-1.56,1.17-1.23,.68-2.58,1.11-3.92,1.49-6.56,1.85-13.37,2.77-20.14,3.41-3.46,.33-6.96,.5-10.35,1.33-.45,.11-.89,.23-1.33,.36,4.01-2.45,8.74-3.74,13.28-4.76,1.71-.38,3.43-.74,5.13-1.15,.4-.1,.34-.73-.09-.66-3.15,.56-6.29,1.23-9.37,2.09-3.08,.85-6.13,1.94-8.9,3.55-.99,.57-1.93,1.21-2.82,1.92-.1,.03-.21,.07-.31,.1,2.04-1.89,4.15-3.72,6.46-5.27Zm10.59-25.97c-.14,.62-.28,1.24-.36,1.87-.02,.13,0,.25,.04,.36-.21,.44-.42,.89-.64,1.33,0-.66-.02-1.33-.12-1.98,.11-2.19-.06-4.4-.31-6.58-.18-1.57-.36-3.14-.72-4.68-.36-1.5-.88-2.96-1.49-4.38-.69-1.61-1.47-3.16-2.24-4.73-.21-.42-.89-.14-.68,.29,1.34,2.73,2.76,5.47,3.54,8.42,.39,1.49,.59,3.02,.77,4.54,.11,.96,.22,1.91,.3,2.87-.24-1.23-.69-2.38-1.19-3.54-2.03-4.71-4.73-9.09-7.08-13.63-.48-.93-.99-1.86-1.36-2.84-.3-.78-.55-1.72-.17-2.44,.37-.71,1.14-.76,1.85-.66,.77,.11,1.55,.43,2.24,.91,1.63,1.12,2.79,2.82,3.76,4.51,1.1,1.91,2.1,3.89,2.88,5.95,.84,2.21,1.4,4.5,1.53,6.87,.07,1.26,.04,2.53-.05,3.79-.09,1.26-.21,2.51-.5,3.75Zm29.62-16.69c-2.6,1.21-5.4,1.94-7.95,3.26-2.68,1.39-5.44,2.6-8.2,3.82-1.33,.59-2.68,1.14-3.98,1.79-1.06,.54-2.05,1.19-3.01,1.88,.85-.84,1.76-1.63,2.7-2.36,2.12-1.66,4.4-3.12,6.7-4.53,1.31-.8,2.63-1.6,3.93-2.41,.31-.19,0-.74-.32-.56-2.45,1.37-4.86,2.79-7.2,4.34-2,1.33-3.96,2.74-5.72,4.38,.66-.94,1.36-1.84,2.13-2.7,1.89-2.11,3.92-4.13,6.12-5.91,2.25-1.82,4.74-3.37,7.3-4.72,2.48-1.31,5.08-2.47,7.88-2.86,.33-.05,.66-.08,.98-.11,.24-.02,.51-.03,.66-.02,.22,0,.44,.02,.66,.06,.11,.02,.21,.04,.32,.06,0,0,.06,.02,.1,.02,.03,.01,.11,.03,.13,.04,.11,.04,.21,.08,.31,.13,.11,.05,.16,.08,.15,.08,.08,.05,.15,.11,.23,.17,0,0,.04,.03,.06,.05,.02,.03,.07,.08,.08,.09,.12,.15,.16,.24,.21,.4,.04,.13,.07,.42,.07,.58-.07,2.54-2.25,4.06-4.33,5.03Z"/></g></svg>