<?xml version="1.0" encoding="UTF-8"?><svg id="Camada_2" xmlns="http://www.w3.org/2000/svg" viewBox="0 0 461.45 134.47"><defs><style>.cls-1,.cls-2{fill:#3f424a;}.cls-2{font-family:Inter-Thin, Inter;font-size:50.78px;}</style></defs><g id="Camada_1-2"><g><text class="cls-2" transform="translate(0 118.24)"><tspan x="0" y="0">MARIANE BARBOSA</tspan></text><g><path class="cls-1" d="M218.35,47.58l.09-7.54c0-3.42-.18-6.48-.96-8.24-.7-1.31-1.31-1.66-1.93-1.66-.79,0-1.4,.7-1.84,1.14-5.17,5.17-9.46,20.5-11.57,25.32-.18,.7-.7,.96-1.31,.96-.79,0-1.66-.61-1.66-1.49,.09-1.31,.53-5.35,.53-9.46s-.44-7.54-2.19-7.54c-3.59,.35-8.06,16.03-8.67,18.4-.35,1.23-.61,2.8-1.84,2.8-.88,0-1.75-.7-1.93-2.02-.35-2.37-.53-6.92-.53-11.74s.18-9.9,.53-13.32c.18-1.05,1.05-1.66,1.93-1.66,.79,0,1.58,.53,1.58,1.93-.09,2.28-.44,13.23-.44,19.1l.09,2.45c.7-2.28,5.08-18.23,10.6-18.23,3.42,.44,4.12,4.82,4.12,9.99,0,1.84-.09,3.59-.18,4.47,2.37-6.48,6.22-16.38,9.99-20.77,1.49-1.58,2.98-2.37,4.38-2.37,2.1,0,3.86,1.84,4.56,5.34,.18,.96,.26,2.54,.26,4.56l-.09,9.99c0,6.57,.35,12.79,2.63,12.79,1.14,0,2.89-1.66,5.26-5.78,2.98-5.08,7.45-15.77,8.76-19.45,.09-.26,.35-.35,.61-.35,.35,0,.7,.18,.7,.61v.18c-1.58,4.03-9.99,26.11-15.77,26.11-4.99-.35-5.7-7.27-5.7-14.55Z"/><path class="cls-1" d="M244.73,62.56c0-4.03,3.33-10.25,12.53-15.95,0-4.82-2.37-8.5-5.17-8.5-3.77,0-7.27,7.27-9.2,14.19-.18,1.05-.88,1.58-1.49,1.58-2.54,0-3.42-10.51-3.42-19.28,0-9.55,1.23-19.71,4.29-26.72,3.07-7.01,6.66-7.89,8.41-7.89,2.45,0,3.42,1.66,3.42,4.29,0,8.85-11.13,28.83-13.23,31.54,.09,4.82,.53,9.64,1.49,14.11,1.31-3.94,4.91-13.58,10.51-13.76,4.82,0,7.01,4.21,7.54,8.59,4.91-2.72,10.74-5.36,13.54-9.13,.05-.1,.22-.39,.32-.61,.14-.32,.72,.04,.65,.29l-.35,.68c-1.59,2.99-8.89,7.2-14.06,10.18v.79c0,5.7-2.37,11.92-5.96,16.03-2.37,2.72-4.56,3.86-6.31,3.86-2.1,0-3.5-1.66-3.5-4.29ZM252.88,3.94c0-1.75-.61-2.8-1.93-2.8l-.88,.09c-4.56,1.23-9.11,16.03-9.2,32.6,1.58-2.28,12-22.43,12-29.88Zm-.61,58.01c2.37-3.42,4.56-9.46,4.91-13.84-8.5,5.35-11.48,11.04-11.48,14.37,0,1.75,.88,2.8,2.1,2.8,1.14,0,2.8-1.05,4.47-3.33Z"/></g></g></g></svg>