<?xml version="1.0" encoding="UTF-8"?><svg id="Camada_2" xmlns="http://www.w3.org/2000/svg" viewBox="0 0 175.97 154.36"><defs><style>.cls-1{fill:#3f424a;}.cls-2{fill:#fff;opacity:.5;}</style></defs><g id="Camada_1-2"><g><g><path class="cls-1" d="M41.11,130.94l.11-9.16c0-4.15-.21-7.88-1.17-10.01-.85-1.6-1.6-2.02-2.34-2.02-.96,0-1.7,.85-2.24,1.38-6.28,6.28-11.5,24.92-14.06,30.78-.21,.85-.85,1.17-1.6,1.17-.96,0-2.02-.75-2.02-1.81,.11-1.6,.64-6.5,.64-11.5s-.53-9.16-2.66-9.16c-4.37,.43-9.8,19.49-10.54,22.36-.43,1.49-.75,3.41-2.24,3.41-1.06,0-2.13-.85-2.34-2.45-.43-2.88-.64-8.41-.64-14.27s.21-12.03,.64-16.19c.21-1.28,1.28-2.02,2.34-2.02,.96,0,1.92,.64,1.92,2.34-.11,2.77-.53,16.08-.53,23.21l.11,2.98c.85-2.77,6.18-22.15,12.89-22.15,4.15,.53,5.01,5.86,5.01,12.14,0,2.24-.11,4.37-.21,5.43,2.88-7.88,7.56-19.91,12.14-25.24,1.81-1.92,3.62-2.88,5.32-2.88,2.56,0,4.69,2.24,5.54,6.5,.21,1.17,.32,3.09,.32,5.54l-.11,12.14c0,7.99,.43,15.55,3.19,15.55,1.38,0,3.51-2.02,6.39-7.03,3.62-6.18,9.05-19.17,10.65-23.64,.11-.32,.43-.43,.75-.43,.43,0,.85,.21,.85,.75v.21c-1.92,4.9-12.14,31.74-19.17,31.74-6.07-.43-6.92-8.84-6.92-17.68Z"/><path class="cls-1" d="M73.16,149.15c0-4.9,4.05-12.46,15.23-19.38,0-5.86-2.88-10.33-6.28-10.33-4.58,0-8.84,8.84-11.18,17.25-.21,1.28-1.07,1.92-1.81,1.92-3.09,0-4.15-12.78-4.15-23.43,0-11.61,1.49-23.96,5.22-32.48,3.73-8.52,8.09-9.58,10.22-9.58,2.98,0,4.15,2.02,4.15,5.22,0,10.76-13.53,35.04-16.08,38.34,.11,5.86,.64,11.71,1.81,17.14,1.6-4.79,5.96-16.51,12.78-16.72,5.86,0,8.52,5.11,9.16,10.44,5.96-3.3,13.05-6.52,16.46-11.1,.07-.12,.27-.47,.39-.74,.17-.39,.88,.05,.78,.35l-.43,.82c-1.93,3.63-10.81,8.75-17.09,12.37v.96c0,6.92-2.88,14.48-7.24,19.49-2.88,3.3-5.54,4.69-7.67,4.69-2.56,0-4.26-2.02-4.26-5.22Zm9.9-71.24c0-2.13-.74-3.41-2.34-3.41l-1.07,.11c-5.54,1.49-11.08,19.49-11.18,39.62,1.92-2.77,14.59-27.26,14.59-36.31Zm-.74,70.5c2.88-4.15,5.54-11.5,5.96-16.83-10.33,6.5-13.95,13.42-13.95,17.46,0,2.13,1.07,3.41,2.56,3.41,1.38,0,3.41-1.28,5.43-4.05Z"/></g><g><path class="cls-2" d="M173.89,39.75c-.43-.47-1.07-.66-1.68-.69-.81-.04-1.64,.1-2.42,.3-.87,.22-1.7,.53-2.51,.9-1.72,.79-3.37,1.76-4.92,2.85-1.5,1.06-2.83,2.32-4.1,3.65-.62,.65-1.22,1.3-1.76,2.01-.21,.28-.42,.57-.62,.86,.99-3.08,1.72-6.25,2.57-9.37,.46-1.68,.95-3.35,1.41-5.02,0-.01,.02-.02,.03-.03,.12-.18,.2-.37,.29-.56,.08-.17,.19-.32,.3-.47,.26-.34,.55-.67,.84-.99,.52-.55,1.15-.98,1.77-1.42,.6-.43,1.17-.9,1.76-1.35,.56-.43,1.15-.82,1.75-1.2,2.39-1.49,4.98-2.71,7.08-4.61,.88-.8,1.86-1.76,2.2-2.94,.2-.67,.07-1.39-.63-1.69-.29-.13-.62-.15-.94-.16-.38,0-.75,.01-1.13,.07-1.6,.25-3.09,1-4.47,1.82-1.35,.81-2.57,1.77-3.66,2.9-1.1,1.13-2.05,2.38-2.9,3.7-.37,.58-.73,1.16-1.08,1.75,.17-.96,.32-1.93,.41-2.91,.07-.69,.09-1.37,.08-2.06,.03-.04,.06-.08,.07-.13,.02-.08,.03-.16,.05-.25v-.06l.02-.02v-.02h0v-.04l.03-.06c.05-.16,.1-.32,.17-.47,0-.02,.01-.05,.02-.07v-.02c.04-.05,.06-.1,.09-.15,0,0,.03-.05,.02-.04l.04-.07c.04-.07,.06-.13,.06-.21,0-.06-.04-.12-.08-.16,.44-.71,.7-1.58,.9-2.36,.17-.66,.28-1.3,.53-1.93,.27-.67,.55-1.33,.84-1.99,1.17-2.61,1.79-5.4,2.86-8.05,.52-1.3,1.06-2.59,1.41-3.96,.28-1.12,.66-2.93-.49-3.71-.4-.27-.69-.08-1.08,.14-.52,.3-1.01,.65-1.47,1.03-.86,.72-1.61,1.56-2.29,2.46-1.41,1.88-2.66,4.02-3.17,6.32-.59,2.64-.33,5.4,.01,8.05,.18,1.38,.39,2.75,.49,4.14,.1,1.42,.03,2.83-.13,4.25-.12,1.05-.29,2.09-.49,3.13-.14-.88-.39-1.76-.68-2.6-.68-1.95-1.79-3.83-3.46-5.09-.85-.65-1.84-1.04-2.92-.99-.84,.05-1.94,.36-2.12,1.32-.1,.51,.15,1,.39,1.44,.28,.5,.56,.99,.88,1.47,.63,.95,1.36,1.84,2.13,2.69,.86,.95,1.81,1.8,2.75,2.67,.44,.41,.87,.83,1.21,1.32,.29,.4,.53,.88,.47,1.39-.01,.1,0,.18,.03,.25,0,.45-.02,.9-.05,1.34-.02,.17-.04,.35-.06,.52-.75,2.62-1.47,5.24-2.16,7.87-.71,2.72-1.48,5.44-2.55,8.05,.06-.61,.09-1.22,.1-1.83,.01-1.57-.19-3.09-.66-4.59-.43-1.39-1.05-2.71-1.74-3.98-.63-1.16-1.31-2.32-2.26-3.24-.85-.82-2.08-1.5-3.29-1.32-.65,.1-1.21,.52-1.42,1.16-.21,.64-.08,1.32,.14,1.94,.22,.61,.53,1.18,.82,1.75,.37,.72,.76,1.44,1.15,2.15,.78,1.43,1.57,2.85,2.3,4.3,.36,.72,.7,1.44,1.01,2.18,.16,.37,.32,.75,.43,1.13,.1,.36,.16,.73,.22,1.09,.13,.78,.36,1.54,.46,2.32,.11,.79,.04,1.6-.05,2.39-.02,.17-.02,.36-.05,.55-.25,.48-.51,.96-.77,1.43-2.67,4.85-5.87,9.34-9.39,13.61-.15,.18-.3,.37-.46,.55,.64-1.4,1.08-2.89,1.34-4.4,.3-1.69,.37-3.43,.23-5.14-.07-.86-.2-1.72-.38-2.57-.16-.75-.27-1.47-.69-2.12-.19-.29-.44-.53-.65-.8-.22-.28-.5-.51-.83-.67-.67-.33-1.51-.35-2.22-.17-.38,.1-.74,.23-1.04,.5-.25,.22-.46,.49-.6,.8-.16,.35-.17,.7-.23,1.06-.07,.45-.12,.91-.15,1.36-.05,.88-.04,1.77,.1,2.65,.13,.84,.36,1.67,.59,2.48,.23,.79,.48,1.58,.63,2.39,.16,.84,.23,1.69,.18,2.54-.05,.89-.19,1.77-.32,2.64-.13,.83-.39,1.62-.72,2.39-.34,.8-.75,1.57-1.16,2.34-.21,.38-.42,.75-.62,1.13-.19,.34-.34,.7-.57,1.02-.1,.13-.22,.19-.34,.29-.07,.05-.12,.11-.17,.18-.02,.03-.04,.06-.06,.09,.03-.01,.07-.02,.14-.01-.05,0-.1,0-.14,.02,0,.01-.01,.02-.01,.04,0,.04-.05,0,0-.03-.2,.06-.29,.28-.23,.46-.12,.11-.25,.23-.37,.34-1.01,.91-1.92,1.96-2.82,2.98-1.8,2.03-3.5,4.16-5.19,6.29-1.69,2.15-3.32,4.35-4.79,6.65-.62,.96-1.21,1.94-1.78,2.94,.31-.91,.6-1.83,.86-2.75,.67-2.35,1.04-4.77,1.19-7.2,.15-2.42,.12-4.86-.04-7.28-.07-1.15-.19-2.29-.41-3.41-.19-1.01-.41-2.04-.87-2.96-.39-.81-.98-1.48-1.78-1.9-.86-.45-1.87-.48-2.75-.07-.84,.39-1.58,1.12-1.93,1.98-.22,.54-.38,1.1-.49,1.67-.11,.58-.15,1.18-.19,1.77-.17,2.4-.09,4.79,.22,7.18,.16,1.19,.35,2.37,.55,3.55,.19,1.18,.36,2.36,.55,3.54,.37,2.37,.84,4.7,1.39,7.04,.12,.53,.24,1.08,.22,1.62-.02,.6-.1,1.19-.21,1.78-.11,.57-.25,1.14-.4,1.7-.16,.57-.34,1.16-.38,1.76-.02,.24-.03,.46-.11,.68-.1,.26-.22,.51-.28,.79,0,.04,0,.09,0,.13-.32,.73-.64,1.45-.95,2.18-.54,1.28-1.03,2.86-1.7,4.06-.37,.66,.62,.76,.91,.19,2.75-5.31,4.74-11.06,7.79-16.2,.42-.28,.88-.49,1.3-.77,.45-.3,.89-.62,1.36-.89,.92-.54,1.98-.88,2.99-1.22,.5-.17,1-.33,1.52-.43,.55-.11,1.1-.2,1.64-.3,1.14-.21,2.25-.5,3.38-.74,2.28-.48,4.59-.83,6.89-1.19,1.94-.31,3.9-.62,5.78-1.22,.93-.3,1.84-.67,2.69-1.14,.77-.44,1.58-.94,2.12-1.67,.27-.37,.46-.81,.44-1.27-.02-.5-.32-.91-.68-1.23-.68-.61-1.61-.89-2.49-1.06-2.1-.39-4.26-.2-6.35,.12-2.23,.34-4.4,.9-6.53,1.65-2.07,.72-4.05,1.63-5.96,2.71-1.44,.81-2.85,1.66-4.15,2.67,.26-.36,.53-.72,.8-1.08,2.59-3.42,5.3-6.79,8.25-9.9,1.54-1.62,3.25-3.07,4.8-4.67,1.46-1.51,2.83-3.12,4.18-4.73,.14-.03,.27-.12,.3-.31-.01,.07,.06-.11,.02-.06,.04-.07,.06-.08,.09-.1,.11-.1,.21-.16,.32-.21,.05-.03,.11-.05,.16-.07,.07,.05,.16,.05,.25-.03,.04-.04,.08-.07,.12-.11,.14-.04,.27-.09,.41-.13,.76-.22,1.49-.51,2.25-.72,2.08-.57,4.25-.69,6.38-.89,4.28-.4,8.56-.99,12.71-2.14,.84-.23,1.69-.49,2.47-.9,.39-.2,.77-.44,1.11-.73,.19-.17,.36-.36,.54-.55,.19-.2,.42-.4,.58-.62,.15-.21,.26-.44,.31-.69,.05-.27-.02-.5-.06-.75-.06-.41-.21-.76-.54-1.02-.15-.12-.33-.19-.5-.27-.26-.12-.5-.26-.76-.36-.48-.19-.99-.3-1.49-.4-1.05-.22-2.14-.24-3.21-.18-1.08,.07-2.15,.21-3.2,.42-2.09,.42-4.15,1.03-6.16,1.73-1.95,.67-3.87,1.49-5.66,2.52-.91,.52-1.76,1.11-2.59,1.74,3.58-4.77,6.72-9.84,9.21-15.28,.16-.27,.3-.55,.44-.82,.19-.36,.4-.71,.65-1.03,.27-.35,.6-.61,.96-.87,.75-.53,1.48-1.11,2.25-1.61,.76-.49,1.61-.83,2.43-1.19,1.76-.78,3.55-1.53,5.27-2.41,.86-.44,1.73-.83,2.63-1.18,.81-.31,1.63-.6,2.43-.95,1.52-.67,3.01-1.61,3.43-3.32,.17-.66,.16-1.45-.32-1.99Zm-11.78-9.75c.82-1.32,1.68-2.62,2.7-3.8,.97-1.13,2.07-2.15,3.3-3,1.22-.85,2.56-1.59,3.98-2.06,.65-.22,1.39-.37,2.05-.37,.26,0,.56,0,.77,.1,.02,0,.05,.03,.09,.06l.02,.02v.03s.02,.02,.02,.02c0,0,0,.02,0,.04v.05s0,.08,0,.08c-.02,.16-.02,.16-.07,.29-.05,.13-.11,.26-.17,.39-.1,.21-.2,.37-.36,.58-.34,.47-.76,.9-1.19,1.3-1.99,1.85-4.45,3.06-6.75,4.45-.59,.36-1.17,.73-1.73,1.12-.57,.4-1.09,.86-1.65,1.27-.28,.21-.57,.41-.86,.62,.46-.53,.93-1.04,1.43-1.54,1.08-1.09,2.28-2.01,3.58-2.82,.73-.45,1.47-.88,2.19-1.33,.19-.11,0-.44-.19-.33-1.33,.75-2.69,1.48-3.93,2.4-1.24,.92-2.32,2.03-3.34,3.18-.33,.37-.64,.74-.96,1.12,.33-.64,.69-1.26,1.07-1.87Zm-1.41-15.81c.07-2.15,.59-4.12,1.63-6.01,.91-1.64,1.99-3.24,3.36-4.52,.6-.55,1.25-1.04,1.96-1.43,.51,.5,.19,1.78,.07,2.32-.23,1.08-.62,2.12-1.03,3.14-.57,1.41-1.08,2.83-1.53,4.29-.62,1.98-1.37,3.86-2.17,5.76-.21,.49-.42,.98-.59,1.48-.17,.5-.24,1.03-.37,1.54-.1,.42-.23,.87-.41,1.31,.05-1.39,.12-2.78,.3-4.16,.22-1.66,.61-3.31,1.03-4.93,.24-.93,.53-1.85,.84-2.76,.08-.23-.26-.38-.35-.15-.63,1.57-1.08,3.2-1.45,4.85-.38,1.69-.64,3.38-.75,5.1-.02,.24-.03,.47-.04,.71-.27-2.17-.57-4.35-.5-6.55Zm-2.28,17.75c-.74-.81-1.6-1.5-2.38-2.27-1.52-1.48-2.91-3.14-3.95-5-.16-.28-.49-.74-.36-1.06,.09-.22,.44-.34,.72-.4,.18-.04,.36-.06,.54-.07,.03,0,.18,0,.18,0,.12,0,.24,.01,.36,.03,.46,.06,.91,.24,1.3,.49,1.62,1.02,2.7,2.73,3.38,4.48,.4,1.01,.71,2.09,.86,3.17,0,.02,0,.04,0,.06-.35-.71-.75-1.39-1.23-2.02-.83-1.08-1.83-2.01-2.83-2.93-.23-.21-.52,.17-.29,.38,.98,.9,1.96,1.81,2.77,2.87,.7,.91,1.15,1.96,1.67,2.97,0,.1,0,.19,0,.29-.21-.35-.46-.68-.73-.98Zm-43.78,74.93s.06,.04,.1,.04c-.07,.15-.15,.3-.23,.45,.04-.16,.09-.33,.12-.49Zm3.24-9.58c-.31,1.38-.71,2.74-1.15,4.09,.06-.52,.12-1.04,.15-1.56,.17-2.83-.11-5.67-.53-8.46-.24-1.59-.51-3.17-.77-4.75-.05-.3-.52-.24-.47,.07,.44,2.72,.94,5.44,1.19,8.19,.12,1.38,.19,2.76,.14,4.14-.04,1.37-.2,2.74-.42,4.09-.05,.3-.12,.58-.2,.86h0c-.2,.56-.41,1.11-.63,1.65-.02,.05-.03,.1-.03,.15-.11,.26-.25,.51-.43,.71,.11-.54,.19-1.08,.21-1.63,.05-1.14-.28-2.2-.53-3.3-.26-1.14-.49-2.29-.7-3.44-.42-2.3-.74-4.61-1.12-6.92-.38-2.29-.7-4.58-.72-6.91,0-1.14,.05-2.29,.14-3.43,.04-.54,.13-1.08,.29-1.61,.14-.47,.29-.92,.59-1.32,.49-.64,1.22-1.11,2.04-1.14,.78-.03,1.53,.43,2,1.02,.5,.63,.79,1.44,.98,2.21,.27,1.1,.46,2.21,.57,3.33,.23,2.3,.28,4.63,.22,6.94-.07,2.35-.3,4.71-.82,7.01Zm2.54,1.54c.06-.09,.11-.17,.16-.26,.04-.01,.09-.03,.13-.06-.1,.1-.2,.21-.29,.31Zm2.68-2.56c.85-.67,1.78-1.24,2.71-1.8,1.82-1.09,3.72-2.09,5.7-2.86,2-.78,4.08-1.42,6.19-1.83,2.07-.4,4.24-.73,6.35-.59,.85,.06,1.73,.16,2.53,.46,.37,.14,.75,.33,1.03,.62,.12,.12,.23,.26,.27,.43,.03,.11,0,.26-.03,.37-.25,.72-1.05,1.22-1.67,1.61-.79,.48-1.64,.86-2.51,1.16-1.78,.62-3.65,.93-5.5,1.22-2.18,.35-4.37,.69-6.54,1.09-1.11,.21-2.21,.47-3.31,.72-1.05,.24-2.13,.36-3.18,.63-1.06,.27-2.11,.66-3.12,1.07-.49,.2-.95,.45-1.39,.73,.36-.41,.75-.81,1.17-1.17,.75-.64,1.61-1.09,2.51-1.5,.95-.43,1.91-.81,2.86-1.24,.88-.41,1.79-.76,2.74-.95,1.2-.24,2.44-.2,3.64-.46,.25-.05,.21-.45-.06-.41-1.11,.17-2.25,.16-3.36,.34-.97,.16-1.91,.48-2.81,.88-.99,.44-1.99,.86-2.98,1.3-.91,.4-1.81,.84-2.6,1.46-.26,.21-.51,.43-.75,.67,.65-.7,1.35-1.36,2.1-1.95Zm14.38-18.83c-.08,.11-.17,.22-.25,.34l-.03,.03c.59-1.37,1.16-2.76,1.59-4.19,.52-1.75,.78-3.55,.67-5.38-.03-.49-.09-.98-.19-1.47-.1-.49-.22-.98-.13-1.47,.04-.22-.32-.33-.39-.11-.26,.81,.09,1.66,.18,2.48,.1,.91,.1,1.83,.02,2.74-.17,1.85-.74,3.64-1.42,5.36-.38,.97-.8,1.92-1.21,2.88-.02,.05-.02,.1-.02,.14-.35,.37-.7,.74-1.06,1.11-.03,.03-.05,.05-.08,.08,.1-.18,.2-.36,.3-.53,.84-1.48,1.54-3.04,1.78-4.73,.12-.87,.26-1.73,.29-2.61,.03-.85-.03-1.71-.18-2.55-.3-1.62-.96-3.14-1.28-4.75-.17-.84-.22-1.68-.19-2.53,.02-.43,.05-.86,.1-1.28,.04-.34,.04-.72,.16-1.04,.11-.28,.28-.51,.52-.69,.27-.21,.65-.3,.99-.35,.64-.08,1.38,.03,1.85,.52,.11,.12,.19,.26,.3,.38,.12,.12,.23,.24,.33,.38,.19,.26,.33,.54,.43,.85,.11,.34,.15,.71,.22,1.07,.09,.42,.16,.84,.22,1.26,.24,1.66,.28,3.34,.09,5.01-.18,1.64-.56,3.25-1.16,4.79-.61,1.56-1.5,2.96-2.48,4.31Zm8.69-7.31c1.66-1.12,3.49-1.98,5.35-2.71,1.9-.74,3.87-1.35,5.85-1.85,2.01-.5,4.12-.88,6.2-.78,1,.05,2.06,.21,2.99,.6,.23,.09,.44,.21,.65,.32,.14,.07,.3,.13,.39,.23,.09,.09,.13,.19,.14,.31,.02,.19,.1,.4,.06,.6-.04,.21-.2,.36-.34,.51-.19,.19-.38,.39-.57,.58-.28,.29-.6,.52-.95,.72-.75,.41-1.58,.68-2.4,.91-4.01,1.13-8.17,1.69-12.31,2.08-2.12,.2-4.26,.3-6.33,.81-.27,.07-.54,.14-.81,.22,2.45-1.5,5.34-2.28,8.12-2.91,1.05-.23,2.1-.45,3.14-.71,.25-.06,.21-.45-.06-.4-1.92,.34-3.84,.75-5.73,1.28-1.88,.52-3.75,1.19-5.44,2.17-.6,.35-1.18,.74-1.72,1.17-.06,.02-.13,.04-.19,.06,1.25-1.16,2.54-2.27,3.95-3.22Zm6.47-15.88c-.09,.38-.17,.76-.22,1.14-.01,.08,0,.15,.03,.22-.13,.27-.26,.54-.39,.81,0-.41-.01-.81-.08-1.21,.07-1.34-.04-2.69-.19-4.02-.11-.96-.22-1.92-.44-2.86-.22-.92-.54-1.81-.91-2.68-.42-.98-.9-1.93-1.37-2.89-.13-.26-.54-.09-.42,.17,.82,1.67,1.68,3.34,2.16,5.15,.24,.91,.36,1.84,.47,2.78,.07,.58,.14,1.17,.19,1.76-.15-.75-.42-1.46-.72-2.16-1.24-2.88-2.89-5.55-4.33-8.33-.29-.57-.6-1.14-.83-1.73-.18-.48-.34-1.05-.11-1.49,.23-.44,.69-.47,1.13-.4,.47,.07,.94,.26,1.37,.55,1,.68,1.71,1.72,2.3,2.76,.67,1.17,1.28,2.38,1.76,3.64,.51,1.35,.86,2.75,.94,4.2,.04,.77,.02,1.55-.03,2.32-.05,.77-.13,1.54-.3,2.29Zm18.11-10.2c-1.59,.74-3.3,1.19-4.86,1.99-1.64,.85-3.33,1.59-5.01,2.34-.81,.36-1.64,.7-2.43,1.1-.65,.33-1.25,.73-1.84,1.15,.52-.52,1.08-.99,1.65-1.44,1.3-1.02,2.69-1.91,4.09-2.77,.8-.49,1.61-.98,2.4-1.47,.19-.12,0-.45-.2-.34-1.49,.84-2.97,1.7-4.4,2.65-1.22,.81-2.42,1.68-3.5,2.68,.4-.57,.83-1.13,1.3-1.65,1.15-1.29,2.39-2.52,3.74-3.61,1.38-1.11,2.9-2.06,4.46-2.88,1.52-.8,3.1-1.51,4.82-1.75,.2-.03,.4-.05,.6-.07,.15-.01,.31-.02,.41-.01,.13,0,.27,.01,.4,.03,.06,0,.13,.02,.19,.03h.06l.08,.04c.07,.02,.13,.05,.19,.08,.07,.03,.1,.05,.09,.05,.05,.03,.09,.07,.14,.1l.03,.03s.04,.05,.05,.06c.07,.09,.1,.15,.13,.25,.02,.08,.04,.26,.04,.35-.04,1.55-1.37,2.48-2.65,3.07Z"/><path class="cls-1" d="M172.6,38.52c-.43-.47-1.07-.66-1.68-.69-.81-.04-1.64,.1-2.42,.3-.87,.22-1.7,.53-2.51,.9-1.72,.79-3.37,1.76-4.92,2.85-1.5,1.06-2.83,2.32-4.1,3.65-.62,.65-1.22,1.3-1.76,2.01-.21,.28-.42,.57-.62,.86,.99-3.08,1.72-6.25,2.57-9.37,.46-1.68,.95-3.35,1.41-5.02,0-.01,.02-.02,.03-.03,.12-.18,.2-.37,.29-.56,.08-.17,.19-.32,.3-.47,.26-.34,.55-.67,.84-.99,.52-.55,1.15-.98,1.77-1.42,.6-.43,1.17-.9,1.76-1.35,.56-.43,1.15-.82,1.75-1.2,2.39-1.49,4.98-2.71,7.08-4.61,.88-.8,1.86-1.76,2.2-2.94,.2-.67,.07-1.39-.63-1.69-.29-.13-.62-.15-.94-.16-.38,0-.75,.01-1.13,.07-1.6,.25-3.09,1-4.47,1.82-1.35,.81-2.57,1.77-3.66,2.9-1.1,1.13-2.05,2.38-2.9,3.7-.37,.58-.73,1.16-1.08,1.75,.17-.96,.32-1.93,.41-2.91,.07-.69,.09-1.37,.08-2.06,.03-.04,.06-.08,.07-.13,.02-.08,.03-.16,.05-.25v-.06l.02-.02v-.02h0v-.04l.03-.06c.05-.16,.1-.32,.17-.47,0-.02,.01-.05,.02-.07v-.02c.04-.05,.06-.1,.09-.15,0,0,.03-.05,.02-.04l.04-.07c.04-.07,.06-.13,.06-.21,0-.06-.04-.12-.08-.16,.44-.71,.7-1.58,.9-2.36,.17-.66,.28-1.3,.53-1.93,.27-.67,.55-1.33,.84-1.99,1.17-2.61,1.79-5.4,2.86-8.05,.52-1.3,1.06-2.59,1.41-3.96,.28-1.12,.66-2.93-.49-3.71-.4-.27-.69-.08-1.08,.14-.52,.3-1.01,.65-1.47,1.03-.86,.72-1.61,1.56-2.29,2.46-1.41,1.88-2.66,4.02-3.17,6.32-.59,2.64-.33,5.4,.01,8.05,.18,1.38,.39,2.75,.49,4.14,.1,1.42,.03,2.83-.13,4.25-.12,1.05-.29,2.09-.49,3.13-.14-.88-.39-1.76-.68-2.6-.68-1.95-1.79-3.83-3.46-5.09-.85-.65-1.84-1.04-2.92-.99-.84,.05-1.94,.36-2.12,1.32-.1,.51,.15,1,.39,1.44,.28,.5,.56,.99,.88,1.47,.63,.95,1.36,1.84,2.13,2.69,.86,.95,1.81,1.8,2.75,2.67,.44,.41,.87,.83,1.21,1.32,.29,.4,.53,.88,.47,1.39-.01,.1,0,.18,.03,.25,0,.45-.02,.9-.05,1.34-.02,.17-.04,.35-.06,.52-.75,2.62-1.47,5.24-2.16,7.87-.71,2.72-1.48,5.44-2.55,8.05,.06-.61,.09-1.22,.1-1.83,.01-1.57-.19-3.09-.66-4.59-.43-1.39-1.05-2.71-1.74-3.98-.63-1.16-1.31-2.32-2.26-3.24-.85-.82-2.08-1.5-3.29-1.32-.65,.1-1.21,.52-1.42,1.16-.21,.64-.08,1.32,.14,1.94,.22,.61,.53,1.18,.82,1.75,.37,.72,.76,1.44,1.15,2.15,.78,1.43,1.57,2.85,2.3,4.3,.36,.72,.7,1.44,1.01,2.18,.16,.37,.32,.75,.43,1.13,.1,.36,.16,.73,.22,1.09,.13,.78,.36,1.54,.46,2.32,.11,.79,.04,1.6-.05,2.39-.02,.17-.02,.36-.05,.55-.25,.48-.51,.96-.77,1.43-2.67,4.85-5.87,9.34-9.39,13.61-.15,.18-.3,.37-.46,.55,.64-1.4,1.08-2.89,1.34-4.4,.3-1.69,.37-3.43,.23-5.14-.07-.86-.2-1.72-.38-2.57-.16-.75-.27-1.47-.69-2.12-.19-.29-.44-.53-.65-.8-.22-.28-.5-.51-.83-.67-.67-.33-1.51-.35-2.22-.17-.38,.1-.74,.23-1.04,.5-.25,.22-.46,.49-.6,.8-.16,.35-.17,.7-.23,1.06-.07,.45-.12,.91-.15,1.36-.05,.88-.04,1.77,.1,2.65,.13,.84,.36,1.67,.59,2.48,.23,.79,.48,1.58,.63,2.39,.16,.84,.23,1.69,.18,2.54-.05,.89-.19,1.77-.32,2.64-.13,.83-.39,1.62-.72,2.39-.34,.8-.75,1.57-1.16,2.34-.21,.38-.42,.75-.62,1.13-.19,.34-.34,.7-.57,1.02-.1,.13-.22,.19-.34,.29-.07,.05-.12,.11-.17,.18-.02,.03-.04,.06-.06,.09,.03-.01,.07-.02,.14-.01-.05,0-.1,0-.14,.02,0,.01-.01,.02-.01,.04,0,.04-.05,0,0-.03-.2,.06-.29,.28-.23,.46-.12,.11-.25,.23-.37,.34-1.01,.91-1.92,1.96-2.82,2.98-1.8,2.03-3.5,4.16-5.19,6.29-1.69,2.15-3.32,4.35-4.79,6.65-.62,.96-1.21,1.94-1.78,2.94,.31-.91,.6-1.83,.86-2.75,.67-2.35,1.04-4.77,1.19-7.2,.15-2.42,.12-4.86-.04-7.28-.07-1.15-.19-2.29-.41-3.41-.19-1.01-.41-2.04-.87-2.96-.39-.81-.98-1.48-1.78-1.9-.86-.45-1.87-.48-2.75-.07-.84,.39-1.58,1.12-1.93,1.98-.22,.54-.38,1.1-.49,1.67-.11,.58-.15,1.18-.19,1.77-.17,2.4-.09,4.79,.22,7.18,.16,1.19,.35,2.37,.55,3.55,.19,1.18,.36,2.36,.55,3.54,.37,2.37,.84,4.7,1.39,7.04,.12,.53,.24,1.08,.22,1.62-.02,.6-.1,1.19-.21,1.78-.11,.57-.25,1.14-.4,1.7-.16,.57-.34,1.16-.38,1.76-.02,.24-.03,.46-.11,.68-.1,.26-.22,.51-.28,.79,0,.04,0,.09,0,.13-.32,.73-.64,1.45-.95,2.18-.54,1.28-1.03,2.86-1.7,4.06-.37,.66,.62,.76,.91,.19,2.75-5.31,4.74-11.06,7.79-16.2,.42-.28,.88-.49,1.3-.77,.45-.3,.89-.62,1.36-.89,.92-.54,1.98-.88,2.99-1.22,.5-.17,1-.33,1.52-.43,.55-.11,1.1-.2,1.64-.3,1.14-.21,2.25-.5,3.38-.74,2.28-.48,4.59-.83,6.89-1.19,1.94-.31,3.9-.62,5.78-1.22,.93-.3,1.84-.67,2.69-1.14,.77-.44,1.58-.94,2.12-1.67,.27-.37,.46-.81,.44-1.27-.02-.5-.32-.91-.68-1.23-.68-.61-1.61-.89-2.49-1.06-2.1-.39-4.26-.2-6.35,.12-2.23,.34-4.4,.9-6.53,1.65-2.07,.72-4.05,1.63-5.96,2.71-1.44,.81-2.85,1.66-4.15,2.67,.26-.36,.53-.72,.8-1.08,2.59-3.42,5.3-6.79,8.25-9.9,1.54-1.62,3.25-3.07,4.8-4.67,1.46-1.51,2.83-3.12,4.18-4.73,.14-.03,.27-.12,.3-.31-.01,.07,.06-.11,.02-.06,.04-.07,.06-.08,.09-.1,.11-.1,.21-.16,.32-.21,.05-.03,.11-.05,.16-.07,.07,.05,.16,.05,.25-.03,.04-.04,.08-.07,.12-.11,.14-.04,.27-.09,.41-.13,.76-.22,1.49-.51,2.25-.72,2.08-.57,4.25-.69,6.38-.89,4.28-.4,8.56-.99,12.71-2.14,.84-.23,1.69-.49,2.47-.9,.39-.2,.77-.44,1.11-.73,.19-.17,.36-.36,.54-.55,.19-.2,.42-.4,.58-.62,.15-.21,.26-.44,.31-.69,.05-.27-.02-.5-.06-.75-.06-.41-.21-.76-.54-1.02-.15-.12-.33-.19-.5-.27-.26-.12-.5-.26-.76-.36-.48-.19-.99-.3-1.49-.4-1.05-.22-2.14-.24-3.21-.18-1.08,.07-2.15,.21-3.2,.42-2.09,.42-4.15,1.03-6.16,1.73-1.95,.67-3.87,1.49-5.66,2.52-.91,.52-1.76,1.11-2.59,1.74,3.58-4.77,6.72-9.84,9.21-15.28,.16-.27,.3-.55,.44-.82,.19-.36,.4-.71,.65-1.03,.27-.35,.6-.61,.96-.87,.75-.53,1.48-1.11,2.25-1.61,.76-.49,1.61-.83,2.43-1.19,1.76-.78,3.55-1.53,5.27-2.41,.86-.44,1.73-.83,2.63-1.18,.81-.31,1.63-.6,2.43-.95,1.52-.67,3.01-1.61,3.43-3.32,.17-.66,.16-1.45-.32-1.99Zm-11.78-9.75c.82-1.32,1.68-2.62,2.7-3.8,.97-1.13,2.07-2.15,3.3-3,1.22-.85,2.56-1.59,3.98-2.06,.65-.22,1.39-.37,2.05-.37,.26,0,.56,0,.77,.1,.02,0,.05,.03,.09,.06l.02,.02v.03s.02,.02,.02,.02c0,0,0,.02,0,.04v.05s0,.08,0,.08c-.02,.16-.02,.16-.07,.29-.05,.13-.11,.26-.17,.39-.1,.21-.2,.37-.36,.58-.34,.47-.76,.9-1.19,1.3-1.99,1.85-4.45,3.06-6.75,4.45-.59,.36-1.17,.73-1.73,1.12-.57,.4-1.09,.86-1.65,1.27-.28,.21-.57,.41-.86,.62,.46-.53,.93-1.04,1.43-1.54,1.08-1.09,2.28-2.01,3.58-2.82,.73-.45,1.47-.88,2.19-1.33,.19-.11,0-.44-.19-.33-1.33,.75-2.69,1.48-3.93,2.4-1.24,.92-2.32,2.03-3.34,3.18-.33,.37-.64,.74-.96,1.12,.33-.64,.69-1.26,1.07-1.87Zm-1.41-15.81c.07-2.15,.59-4.12,1.63-6.01,.91-1.64,1.99-3.24,3.36-4.52,.6-.55,1.25-1.04,1.96-1.43,.51,.5,.19,1.78,.07,2.32-.23,1.08-.62,2.12-1.03,3.14-.57,1.41-1.08,2.83-1.53,4.29-.62,1.98-1.37,3.86-2.17,5.76-.21,.49-.42,.98-.59,1.48-.17,.5-.24,1.03-.37,1.54-.1,.42-.23,.87-.41,1.31,.05-1.39,.12-2.78,.3-4.16,.22-1.66,.61-3.31,1.03-4.93,.24-.93,.53-1.85,.84-2.76,.08-.23-.26-.38-.35-.15-.63,1.57-1.08,3.2-1.45,4.85-.38,1.69-.64,3.38-.75,5.1-.02,.24-.03,.47-.04,.71-.27-2.17-.57-4.35-.5-6.55Zm-2.28,17.75c-.74-.81-1.6-1.5-2.38-2.27-1.52-1.48-2.91-3.14-3.95-5-.16-.28-.49-.74-.36-1.06,.09-.22,.44-.34,.72-.4,.18-.04,.36-.06,.54-.07,.03,0,.18,0,.18,0,.12,0,.24,.01,.36,.03,.46,.06,.91,.24,1.3,.49,1.62,1.02,2.7,2.73,3.38,4.48,.4,1.01,.71,2.09,.86,3.17,0,.02,0,.04,0,.06-.35-.71-.75-1.39-1.23-2.02-.83-1.08-1.83-2.01-2.83-2.93-.23-.21-.52,.17-.29,.38,.98,.9,1.96,1.81,2.77,2.87,.7,.91,1.15,1.96,1.67,2.97,0,.1,0,.19,0,.29-.21-.35-.46-.68-.73-.98Zm-43.78,74.93s.06,.04,.1,.04c-.07,.15-.15,.3-.23,.45,.04-.16,.09-.33,.12-.49Zm3.24-9.58c-.31,1.38-.71,2.74-1.15,4.09,.06-.52,.12-1.04,.15-1.56,.17-2.83-.11-5.67-.53-8.46-.24-1.59-.51-3.17-.77-4.75-.05-.3-.52-.24-.47,.07,.44,2.72,.94,5.44,1.19,8.19,.12,1.38,.19,2.76,.14,4.14-.04,1.37-.2,2.74-.42,4.09-.05,.3-.12,.58-.2,.86h0c-.2,.56-.41,1.11-.63,1.65-.02,.05-.03,.1-.03,.15-.11,.26-.25,.51-.43,.71,.11-.54,.19-1.08,.21-1.63,.05-1.14-.28-2.2-.53-3.3-.26-1.14-.49-2.29-.7-3.44-.42-2.3-.74-4.61-1.12-6.92-.38-2.29-.7-4.58-.72-6.91,0-1.14,.05-2.29,.14-3.43,.04-.54,.13-1.08,.29-1.61,.14-.47,.29-.92,.59-1.32,.49-.64,1.22-1.11,2.04-1.14,.78-.03,1.53,.43,2,1.02,.5,.63,.79,1.44,.98,2.21,.27,1.1,.46,2.21,.57,3.33,.23,2.3,.28,4.63,.22,6.94-.07,2.35-.3,4.71-.82,7.01Zm2.54,1.54c.06-.09,.11-.17,.16-.26,.04-.01,.09-.03,.13-.06-.1,.1-.2,.21-.29,.31Zm2.68-2.56c.85-.67,1.78-1.24,2.71-1.8,1.82-1.09,3.72-2.09,5.7-2.86,2-.78,4.08-1.42,6.19-1.83,2.07-.4,4.24-.73,6.35-.59,.85,.06,1.73,.16,2.53,.46,.37,.14,.75,.33,1.03,.62,.12,.12,.23,.26,.27,.43,.03,.11,0,.26-.03,.37-.25,.72-1.05,1.22-1.67,1.61-.79,.48-1.64,.86-2.51,1.16-1.78,.62-3.65,.93-5.5,1.22-2.18,.35-4.37,.69-6.54,1.09-1.11,.21-2.21,.47-3.31,.72-1.05,.24-2.13,.36-3.18,.63-1.06,.27-2.11,.66-3.12,1.07-.49,.2-.95,.45-1.39,.73,.36-.41,.75-.81,1.17-1.17,.75-.64,1.61-1.09,2.51-1.5,.95-.43,1.91-.81,2.86-1.24,.88-.41,1.79-.76,2.74-.95,1.2-.24,2.44-.2,3.64-.46,.25-.05,.21-.45-.06-.41-1.11,.17-2.25,.16-3.36,.34-.97,.16-1.91,.48-2.81,.88-.99,.44-1.99,.86-2.98,1.3-.91,.4-1.81,.84-2.6,1.46-.26,.21-.51,.43-.75,.67,.65-.7,1.35-1.36,2.1-1.95Zm14.38-18.83c-.08,.11-.17,.22-.25,.34l-.03,.03c.59-1.37,1.16-2.76,1.59-4.19,.52-1.75,.78-3.55,.67-5.38-.03-.49-.09-.98-.19-1.47-.1-.49-.22-.98-.13-1.47,.04-.22-.32-.33-.39-.11-.26,.81,.09,1.66,.18,2.48,.1,.91,.1,1.83,.02,2.74-.17,1.85-.74,3.64-1.42,5.36-.38,.97-.8,1.92-1.21,2.88-.02,.05-.02,.1-.02,.14-.35,.37-.7,.74-1.06,1.11-.03,.03-.05,.05-.08,.08,.1-.18,.2-.36,.3-.53,.84-1.48,1.54-3.04,1.78-4.73,.12-.87,.26-1.73,.29-2.61,.03-.85-.03-1.71-.18-2.55-.3-1.62-.96-3.14-1.28-4.75-.17-.84-.22-1.68-.19-2.53,.02-.43,.05-.86,.1-1.28,.04-.34,.04-.72,.16-1.04,.11-.28,.28-.51,.52-.69,.27-.21,.65-.3,.99-.35,.64-.08,1.38,.03,1.85,.52,.11,.12,.19,.26,.3,.38,.12,.12,.23,.24,.33,.38,.19,.26,.33,.54,.43,.85,.11,.34,.15,.71,.22,1.07,.09,.42,.16,.84,.22,1.26,.24,1.66,.28,3.34,.09,5.01-.18,1.64-.56,3.25-1.16,4.79-.61,1.56-1.5,2.96-2.48,4.31Zm8.69-7.31c1.66-1.12,3.49-1.98,5.35-2.71,1.9-.74,3.87-1.35,5.85-1.85,2.01-.5,4.12-.88,6.2-.78,1,.05,2.06,.21,2.99,.6,.23,.09,.44,.21,.65,.32,.14,.07,.3,.13,.39,.23,.09,.09,.13,.19,.14,.31,.02,.19,.1,.4,.06,.6-.04,.21-.2,.36-.34,.51-.19,.19-.38,.39-.57,.58-.28,.29-.6,.52-.95,.72-.75,.41-1.58,.68-2.4,.91-4.01,1.13-8.17,1.69-12.31,2.08-2.12,.2-4.26,.3-6.33,.81-.27,.07-.54,.14-.81,.22,2.45-1.5,5.34-2.28,8.12-2.91,1.05-.23,2.1-.45,3.14-.71,.25-.06,.21-.45-.06-.4-1.92,.34-3.84,.75-5.73,1.28-1.88,.52-3.75,1.19-5.44,2.17-.6,.35-1.18,.74-1.72,1.17-.06,.02-.13,.04-.19,.06,1.25-1.16,2.54-2.27,3.95-3.22Zm6.47-15.88c-.09,.38-.17,.76-.22,1.14-.01,.08,0,.15,.03,.22-.13,.27-.26,.54-.39,.81,0-.41-.01-.81-.08-1.21,.07-1.34-.04-2.69-.19-4.02-.11-.96-.22-1.92-.44-2.86-.22-.92-.54-1.81-.91-2.68-.42-.98-.9-1.93-1.37-2.89-.13-.26-.54-.09-.42,.17,.82,1.67,1.68,3.34,2.16,5.15,.24,.91,.36,1.84,.47,2.78,.07,.58,.14,1.17,.19,1.76-.15-.75-.42-1.46-.72-2.16-1.24-2.88-2.89-5.55-4.33-8.33-.29-.57-.6-1.14-.83-1.73-.18-.48-.34-1.05-.11-1.49,.23-.44,.69-.47,1.13-.4,.47,.07,.94,.26,1.37,.55,1,.68,1.71,1.72,2.3,2.76,.67,1.17,1.28,2.38,1.76,3.64,.51,1.35,.86,2.75,.94,4.2,.04,.77,.02,1.55-.03,2.32-.05,.77-.13,1.54-.3,2.29Zm18.11-10.2c-1.59,.74-3.3,1.19-4.86,1.99-1.64,.85-3.33,1.59-5.01,2.34-.81,.36-1.64,.7-2.43,1.1-.65,.33-1.25,.73-1.84,1.15,.52-.52,1.08-.99,1.65-1.44,1.3-1.02,2.69-1.91,4.09-2.77,.8-.49,1.61-.98,2.4-1.47,.19-.12,0-.45-.2-.34-1.49,.84-2.97,1.7-4.4,2.65-1.22,.81-2.42,1.68-3.5,2.68,.4-.57,.83-1.13,1.3-1.65,1.15-1.29,2.39-2.52,3.74-3.61,1.38-1.11,2.9-2.06,4.46-2.88,1.52-.8,3.1-1.51,4.82-1.75,.2-.03,.4-.05,.6-.07,.15-.01,.31-.02,.41-.01,.13,0,.27,.01,.4,.03,.06,0,.13,.02,.19,.03h.06l.08,.04c.07,.02,.13,.05,.19,.08,.07,.03,.1,.05,.09,.05,.05,.03,.09,.07,.14,.1l.03,.03s.04,.05,.05,.06c.07,.09,.1,.15,.13,.25,.02,.08,.04,.26,.04,.35-.04,1.55-1.37,2.48-2.65,3.07Z"/></g></g></g></svg>