<?xml version="1.0" encoding="UTF-8"?><svg id="Camada_2" xmlns="http://www.w3.org/2000/svg" viewBox="0 0 318.8 54.72"><defs><style>.cls-1,.cls-2{fill:#3f424a;}.cls-3{fill:#fff;opacity:.5;}.cls-2{font-family:Inter-Thin, Inter;font-size:30.73px;}</style></defs><g id="Camada_1-2"><g><text class="cls-2" transform="translate(0 41.27)"><tspan x="0" y="0">MARIANE BARBOSA</tspan></text><g><path class="cls-3" d="M317.84,18.4c-.2-.22-.49-.31-.78-.32-.38-.02-.76,.05-1.12,.14-.4,.1-.79,.24-1.16,.42-.8,.37-1.56,.82-2.28,1.32-.69,.49-1.31,1.08-1.9,1.69-.29,.3-.56,.6-.82,.93-.1,.13-.19,.26-.29,.4,.46-1.43,.8-2.89,1.19-4.34,.21-.78,.44-1.55,.65-2.32v-.02c.07-.08,.11-.17,.15-.26,.04-.08,.09-.15,.14-.22,.12-.16,.25-.31,.39-.46,.24-.26,.53-.46,.82-.66,.28-.2,.54-.42,.82-.62,.26-.2,.53-.38,.81-.55,1.1-.69,2.31-1.25,3.28-2.14,.41-.37,.86-.82,1.02-1.36,.09-.31,.03-.64-.29-.78-.14-.06-.29-.07-.44-.07-.18,0-.35,0-.52,.03-.74,.12-1.43,.46-2.07,.84-.62,.37-1.19,.82-1.7,1.34-.51,.52-.95,1.1-1.34,1.72-.17,.27-.34,.54-.5,.81,.08-.44,.15-.89,.19-1.35,.03-.32,.04-.64,.04-.95,.01-.02,.03-.04,.03-.06,0-.04,.02-.08,.03-.11v-.03h0v-.02h0v-.04c.03-.07,.06-.15,.09-.22,0-.01,0-.02,0-.03h0s.03-.05,.04-.08c0,0,.01-.02,.01-.02l.02-.03s.03-.06,.03-.1c0-.03-.02-.05-.04-.07,.21-.33,.33-.73,.42-1.09,.08-.3,.13-.6,.25-.9,.12-.31,.25-.62,.39-.92,.54-1.21,.83-2.5,1.32-3.73,.24-.6,.49-1.2,.65-1.83,.13-.52,.3-1.36-.23-1.72-.19-.13-.32-.04-.5,.07-.24,.14-.47,.3-.68,.48-.4,.33-.75,.72-1.06,1.14-.65,.87-1.23,1.86-1.47,2.93-.27,1.22-.15,2.5,0,3.73,.08,.64,.18,1.27,.23,1.91,.05,.66,.02,1.31-.06,1.97-.06,.49-.13,.97-.23,1.45-.07-.41-.18-.81-.32-1.2-.32-.9-.83-1.77-1.6-2.36-.39-.3-.85-.48-1.35-.46-.39,.02-.9,.17-.98,.61-.04,.24,.07,.47,.18,.67,.13,.23,.26,.46,.41,.68,.29,.44,.63,.85,.99,1.24,.4,.44,.84,.83,1.27,1.24,.2,.19,.4,.38,.56,.61,.13,.19,.25,.41,.22,.64,0,.04,0,.08,.02,.12,0,.21,0,.42-.02,.62,0,.08-.02,.16-.03,.24-.35,1.21-.68,2.42-1,3.64-.33,1.26-.68,2.52-1.18,3.73,.03-.28,.04-.57,.04-.85,0-.73-.09-1.43-.3-2.12-.2-.64-.49-1.25-.8-1.84-.29-.54-.6-1.07-1.05-1.5-.39-.38-.96-.7-1.53-.61-.3,.05-.56,.24-.66,.53-.1,.3-.04,.61,.07,.9,.1,.28,.24,.55,.38,.81,.17,.33,.35,.67,.53,1,.36,.66,.73,1.32,1.06,1.99,.17,.33,.32,.67,.47,1.01,.07,.17,.15,.35,.2,.53,.05,.16,.08,.34,.1,.5,.06,.36,.17,.71,.22,1.08,.05,.36,.02,.74-.02,1.1,0,.08-.01,.17-.02,.25-.12,.22-.24,.44-.36,.66-1.24,2.25-2.72,4.33-4.35,6.3-.07,.09-.14,.17-.21,.25,.29-.65,.5-1.34,.62-2.04,.14-.78,.17-1.59,.11-2.38-.03-.4-.09-.8-.17-1.19-.07-.35-.12-.68-.32-.98-.09-.13-.2-.24-.3-.37-.1-.13-.23-.23-.38-.31-.31-.15-.7-.16-1.03-.08-.18,.05-.34,.11-.48,.23-.12,.1-.21,.23-.28,.37-.07,.16-.08,.32-.11,.49-.03,.21-.06,.42-.07,.63-.03,.41-.02,.82,.04,1.23,.06,.39,.17,.77,.28,1.15,.11,.37,.22,.73,.29,1.11,.07,.39,.11,.78,.08,1.18-.02,.41-.09,.82-.15,1.22-.06,.38-.18,.75-.33,1.11-.16,.37-.35,.73-.54,1.08-.1,.17-.19,.35-.29,.52-.09,.16-.16,.33-.26,.47-.04,.06-.1,.09-.16,.13-.03,.02-.06,.05-.08,.08,0,.01-.02,.03-.03,.04,.01,0,.03,0,.07,0-.02,0-.05,0-.07,0,0,0,0,.01,0,.02,0,.02-.02,0,0-.02-.09,.03-.13,.13-.11,.21-.06,.05-.12,.11-.17,.16-.47,.42-.89,.91-1.31,1.38-.83,.94-1.62,1.92-2.4,2.91-.78,.99-1.54,2.01-2.22,3.08-.29,.45-.56,.9-.83,1.36,.14-.42,.28-.85,.4-1.27,.31-1.09,.48-2.21,.55-3.34,.07-1.12,.05-2.25-.02-3.37-.03-.53-.09-1.06-.19-1.58-.09-.47-.19-.94-.4-1.37-.18-.37-.45-.68-.82-.88-.4-.21-.87-.22-1.28-.03-.39,.18-.73,.52-.89,.92-.1,.25-.18,.51-.23,.77-.05,.27-.07,.54-.09,.82-.08,1.11-.04,2.22,.1,3.32,.07,.55,.16,1.1,.25,1.65,.09,.54,.17,1.09,.25,1.64,.17,1.1,.39,2.18,.64,3.26,.06,.24,.11,.5,.1,.75,0,.28-.05,.55-.1,.82-.05,.27-.12,.53-.19,.79-.07,.27-.16,.54-.17,.81,0,.11-.01,.21-.05,.32-.05,.12-.1,.23-.13,.36,0,.02,0,.04,0,.06-.15,.34-.3,.67-.44,1.01-.25,.59-.48,1.33-.79,1.88-.17,.3,.29,.35,.42,.09,1.27-2.46,2.2-5.12,3.61-7.5,.19-.13,.41-.23,.6-.36,.21-.14,.41-.29,.63-.41,.43-.25,.92-.41,1.38-.57,.23-.08,.46-.15,.7-.2,.25-.05,.51-.09,.76-.14,.53-.1,1.04-.23,1.57-.34,1.05-.22,2.13-.38,3.19-.55,.9-.14,1.8-.29,2.68-.56,.43-.14,.85-.31,1.24-.53,.36-.2,.73-.43,.98-.77,.13-.17,.21-.37,.2-.59-.01-.23-.15-.42-.31-.57-.32-.28-.75-.41-1.15-.49-.97-.18-1.97-.09-2.94,.06-1.03,.16-2.04,.42-3.03,.76-.96,.33-1.87,.76-2.76,1.25-.66,.38-1.32,.77-1.92,1.24,.12-.17,.24-.33,.37-.5,1.2-1.58,2.46-3.14,3.82-4.58,.71-.75,1.5-1.42,2.22-2.16,.68-.7,1.31-1.44,1.94-2.19,.07-.01,.12-.06,.14-.14,0,.03,.03-.05,.01-.03,.02-.03,.03-.04,.04-.05,.05-.05,.1-.07,.15-.1,.02-.01,.05-.02,.08-.03,.03,.02,.08,.02,.11-.01,.02-.02,.04-.03,.05-.05,.06-.02,.13-.04,.19-.06,.35-.1,.69-.24,1.04-.33,.96-.27,1.97-.32,2.95-.41,1.98-.18,3.96-.46,5.88-.99,.39-.11,.78-.23,1.14-.42,.18-.09,.36-.2,.51-.34,.09-.08,.17-.17,.25-.25,.09-.09,.19-.18,.27-.29,.07-.1,.12-.2,.14-.32,.02-.12,0-.23-.03-.35-.03-.19-.1-.35-.25-.47-.07-.06-.15-.09-.23-.13-.12-.06-.23-.12-.35-.17-.22-.09-.46-.14-.69-.19-.49-.1-.99-.11-1.49-.08-.5,.03-.99,.1-1.48,.19-.97,.19-1.92,.48-2.85,.8-.9,.31-1.79,.69-2.62,1.17-.42,.24-.82,.51-1.2,.8,1.66-2.21,3.11-4.56,4.27-7.07,.07-.13,.14-.25,.21-.38,.09-.17,.18-.33,.3-.48,.12-.16,.28-.28,.44-.4,.35-.25,.69-.51,1.04-.74,.35-.23,.74-.38,1.13-.55,.82-.36,1.64-.71,2.44-1.12,.4-.2,.8-.39,1.22-.55,.38-.14,.75-.28,1.12-.44,.7-.31,1.39-.74,1.59-1.54,.08-.31,.08-.67-.15-.92Zm-5.45-4.51c.38-.61,.78-1.21,1.25-1.76,.45-.52,.96-1,1.53-1.39,.56-.39,1.19-.74,1.84-.96,.3-.1,.64-.17,.95-.17,.12,0,.26,0,.36,.05,0,0,.02,.01,.04,.03h0v.02h.01v.09c0,.07-.01,.08-.03,.13-.02,.06-.05,.12-.08,.18-.05,.1-.09,.17-.17,.27-.16,.22-.35,.42-.55,.6-.92,.86-2.06,1.42-3.13,2.06-.27,.16-.54,.34-.8,.52-.26,.19-.51,.4-.76,.59-.13,.1-.27,.19-.4,.29,.21-.24,.43-.48,.66-.71,.5-.5,1.06-.93,1.66-1.31,.34-.21,.68-.41,1.02-.61,.09-.05,0-.21-.09-.16-.62,.35-1.25,.69-1.82,1.11-.57,.43-1.07,.94-1.54,1.47-.15,.17-.3,.34-.45,.52,.15-.3,.32-.58,.5-.87Zm-.65-7.32c.03-1,.27-1.91,.76-2.78,.42-.76,.92-1.5,1.56-2.09,.28-.26,.58-.48,.91-.66,.24,.23,.09,.83,.03,1.08-.11,.5-.29,.98-.48,1.45-.26,.65-.5,1.31-.71,1.99-.29,.92-.63,1.79-1.01,2.67-.1,.23-.2,.45-.27,.68-.08,.23-.11,.48-.17,.71-.05,.19-.11,.4-.19,.61,.02-.64,.05-1.29,.14-1.93,.1-.77,.28-1.53,.48-2.28,.11-.43,.24-.86,.39-1.28,.04-.11-.12-.18-.16-.07-.29,.73-.5,1.48-.67,2.25-.17,.78-.3,1.56-.35,2.36,0,.11-.01,.22-.02,.33-.12-1.01-.26-2.01-.23-3.03Zm-1.05,8.22c-.34-.38-.74-.7-1.1-1.05-.71-.68-1.35-1.45-1.83-2.32-.07-.13-.23-.34-.17-.49,.04-.1,.21-.16,.33-.19,.08-.02,.17-.03,.25-.03,.01,0,.08,0,.08,0,.06,0,.11,0,.17,.01,.21,.03,.42,.11,.6,.23,.75,.47,1.25,1.26,1.57,2.07,.19,.47,.33,.97,.4,1.47v.03c-.16-.33-.34-.64-.57-.93-.38-.5-.85-.93-1.31-1.35-.11-.1-.24,.08-.14,.17,.45,.42,.91,.84,1.28,1.33,.32,.42,.53,.91,.77,1.37,0,.05,0,.09,0,.14-.1-.16-.21-.32-.34-.45Zm-20.27,34.69s.03,.02,.05,.02c-.03,.07-.07,.14-.1,.21,.02-.08,.04-.15,.06-.23Zm1.5-4.43c-.14,.64-.33,1.27-.53,1.89,.03-.24,.05-.48,.07-.72,.08-1.31-.05-2.62-.25-3.92-.11-.74-.24-1.47-.36-2.2-.02-.14-.24-.11-.22,.03,.21,1.26,.44,2.52,.55,3.79,.06,.64,.09,1.28,.07,1.92-.02,.63-.09,1.27-.2,1.89-.02,.14-.05,.27-.09,.4h0c-.09,.26-.19,.51-.29,.76,0,.02-.01,.05-.01,.07-.05,.12-.11,.24-.2,.33,.05-.25,.09-.5,.1-.76,.02-.53-.13-1.02-.25-1.53-.12-.53-.23-1.06-.32-1.59-.19-1.06-.34-2.14-.52-3.2-.18-1.06-.33-2.12-.33-3.2,0-.53,.02-1.06,.06-1.59,.02-.25,.06-.5,.13-.74,.06-.22,.14-.43,.27-.61,.23-.29,.57-.51,.94-.53,.36-.01,.71,.2,.93,.47,.23,.29,.37,.66,.45,1.02,.12,.51,.21,1.02,.26,1.54,.11,1.06,.13,2.15,.1,3.22-.03,1.09-.14,2.18-.38,3.25Zm1.17,.71s.05-.08,.08-.12c.02,0,.04-.01,.06-.03-.05,.05-.09,.1-.13,.14Zm1.24-1.19c.4-.31,.82-.58,1.25-.83,.84-.51,1.72-.97,2.64-1.32,.93-.36,1.89-.66,2.87-.85,.96-.19,1.96-.34,2.94-.27,.39,.03,.8,.07,1.17,.21,.17,.07,.35,.15,.48,.29,.06,.06,.11,.12,.13,.2,.01,.05,0,.12-.01,.17-.11,.34-.49,.57-.77,.74-.36,.22-.76,.4-1.16,.54-.82,.29-1.69,.43-2.55,.56-1.01,.16-2.02,.32-3.03,.51-.51,.1-1.02,.22-1.53,.33-.49,.11-.99,.17-1.47,.29-.49,.13-.98,.3-1.44,.5-.23,.09-.44,.21-.64,.34,.17-.19,.35-.38,.54-.54,.35-.3,.75-.51,1.16-.69,.44-.2,.89-.37,1.32-.58,.41-.19,.83-.35,1.27-.44,.56-.11,1.13-.09,1.68-.21,.12-.03,.1-.21-.03-.19-.52,.08-1.04,.07-1.56,.16-.45,.07-.88,.22-1.3,.41-.46,.2-.92,.4-1.38,.6-.42,.19-.84,.39-1.2,.68-.12,.1-.24,.2-.35,.31,.3-.33,.62-.63,.97-.9Zm6.66-8.72c-.04,.05-.08,.1-.12,.16h-.01c.27-.62,.54-1.26,.73-1.93,.24-.81,.36-1.65,.31-2.49-.01-.23-.04-.46-.09-.68-.05-.22-.1-.45-.06-.68,.02-.1-.15-.15-.18-.05-.12,.38,.04,.77,.08,1.15,.05,.42,.05,.85,0,1.27-.08,.86-.34,1.68-.66,2.48-.18,.45-.37,.89-.56,1.33,0,.02-.01,.04,0,.06-.16,.17-.32,.34-.49,.51l-.04,.04c.05-.08,.09-.16,.14-.25,.39-.68,.71-1.41,.82-2.19,.06-.4,.12-.8,.14-1.21,.02-.4-.01-.79-.09-1.18-.14-.75-.44-1.45-.59-2.2-.08-.39-.1-.78-.09-1.17,0-.2,.02-.4,.05-.59,.02-.16,.02-.33,.08-.48,.05-.13,.13-.24,.24-.32,.13-.1,.3-.14,.46-.16,.3-.04,.64,.01,.86,.24,.05,.05,.09,.12,.14,.17,.06,.05,.11,.11,.15,.17,.09,.12,.15,.25,.2,.39,.05,.16,.07,.33,.1,.49,.04,.19,.07,.39,.1,.58,.11,.77,.13,1.55,.04,2.32-.09,.76-.26,1.51-.54,2.22-.28,.72-.69,1.37-1.15,2Zm4.02-3.39c.77-.52,1.62-.92,2.48-1.26,.88-.34,1.79-.63,2.71-.86,.93-.23,1.91-.41,2.87-.36,.46,.02,.96,.1,1.39,.28,.1,.04,.2,.1,.3,.15,.06,.03,.14,.06,.18,.11,.04,.04,.06,.09,.07,.14,.01,.09,.05,.19,.03,.28-.02,.1-.09,.17-.16,.23-.09,.09-.18,.18-.26,.27-.13,.13-.28,.24-.44,.33-.35,.19-.73,.31-1.11,.42-1.86,.52-3.78,.78-5.7,.96-.98,.09-1.97,.14-2.93,.38-.13,.03-.25,.07-.38,.1,1.13-.69,2.47-1.06,3.76-1.35,.48-.11,.97-.21,1.45-.33,.11-.03,.1-.21-.03-.19-.89,.16-1.78,.35-2.65,.59-.87,.24-1.73,.55-2.52,1.01-.28,.16-.55,.34-.8,.54l-.09,.03c.58-.54,1.17-1.05,1.83-1.49Zm3-7.35c-.04,.18-.08,.35-.1,.53,0,.04,0,.07,.01,.1-.06,.13-.12,.25-.18,.38,0-.19,0-.38-.03-.56,.03-.62-.02-1.25-.09-1.86-.05-.44-.1-.89-.2-1.33-.1-.43-.25-.84-.42-1.24-.19-.45-.42-.9-.63-1.34-.06-.12-.25-.04-.19,.08,.38,.77,.78,1.55,1,2.38,.11,.42,.17,.85,.22,1.29,.03,.27,.06,.54,.09,.81-.07-.35-.19-.67-.34-1-.57-1.33-1.34-2.57-2-3.86-.14-.26-.28-.53-.38-.8-.08-.22-.16-.49-.05-.69,.11-.2,.32-.22,.52-.19,.22,.03,.44,.12,.63,.26,.46,.32,.79,.8,1.07,1.28,.31,.54,.59,1.1,.82,1.68,.24,.63,.4,1.27,.43,1.94,.02,.36,.01,.72-.01,1.07-.03,.36-.06,.71-.14,1.06Zm8.38-4.72c-.74,.34-1.53,.55-2.25,.92-.76,.39-1.54,.74-2.32,1.08-.38,.17-.76,.32-1.13,.51-.3,.15-.58,.34-.85,.53,.24-.24,.5-.46,.77-.67,.6-.47,1.24-.88,1.9-1.28,.37-.23,.74-.45,1.11-.68,.09-.05,0-.21-.09-.16-.69,.39-1.38,.79-2.04,1.23-.57,.38-1.12,.78-1.62,1.24,.19-.27,.39-.52,.6-.76,.53-.6,1.11-1.17,1.73-1.67,.64-.52,1.34-.95,2.07-1.34,.7-.37,1.44-.7,2.23-.81,.09-.01,.19-.02,.28-.03,.07,0,.14,0,.19,0,.06,0,.12,0,.19,.02,.03,0,.06,.01,.09,.02h.03l.04,.02s.06,.02,.09,.04c.03,.01,.05,.02,.04,.02,.02,.02,.04,.03,.06,.05h.02l.02,.04s.05,.07,.06,.11c.01,.04,.02,.12,.02,.16-.02,.72-.64,1.15-1.23,1.42Z"/><path class="cls-1" d="M317.24,17.84c-.2-.22-.49-.31-.78-.32-.38-.02-.76,.05-1.12,.14-.4,.1-.79,.24-1.16,.42-.8,.37-1.56,.82-2.28,1.32-.69,.49-1.31,1.08-1.9,1.69-.29,.3-.56,.6-.82,.93-.1,.13-.19,.26-.29,.4,.46-1.43,.8-2.89,1.19-4.34,.21-.78,.44-1.55,.65-2.32v-.02c.07-.08,.11-.17,.15-.26,.04-.08,.09-.15,.14-.22,.12-.16,.25-.31,.39-.46,.24-.26,.53-.46,.82-.66,.28-.2,.54-.42,.82-.62,.26-.2,.53-.38,.81-.55,1.1-.69,2.31-1.25,3.28-2.14,.41-.37,.86-.82,1.02-1.36,.09-.31,.03-.64-.29-.78-.14-.06-.29-.07-.44-.07-.18,0-.35,0-.52,.03-.74,.12-1.43,.46-2.07,.84-.62,.37-1.19,.82-1.7,1.34-.51,.52-.95,1.1-1.34,1.72-.17,.27-.34,.54-.5,.81,.08-.44,.15-.89,.19-1.35,.03-.32,.04-.64,.04-.95,.01-.02,.03-.04,.03-.06,0-.04,.02-.08,.03-.11v-.03h0v-.02h0v-.04c.03-.07,.06-.15,.09-.22,0-.01,0-.02,0-.03h0s.03-.05,.04-.08c0,0,.01-.02,.01-.02l.02-.03s.03-.06,.03-.1c0-.03-.02-.05-.04-.07,.21-.33,.33-.73,.42-1.09,.08-.3,.13-.6,.25-.9,.12-.31,.25-.62,.39-.92,.54-1.21,.83-2.5,1.32-3.73,.24-.6,.49-1.2,.65-1.83,.13-.52,.3-1.36-.23-1.72-.19-.13-.32-.04-.5,.07-.24,.14-.47,.3-.68,.48-.4,.33-.75,.72-1.06,1.14-.65,.87-1.23,1.86-1.47,2.93-.27,1.22-.15,2.5,0,3.73,.08,.64,.18,1.27,.23,1.91,.05,.66,.02,1.31-.06,1.97-.06,.49-.13,.97-.23,1.45-.07-.41-.18-.81-.32-1.2-.32-.9-.83-1.77-1.6-2.36-.39-.3-.85-.48-1.35-.46-.39,.02-.9,.17-.98,.61-.04,.24,.07,.47,.18,.67,.13,.23,.26,.46,.41,.68,.29,.44,.63,.85,.99,1.24,.4,.44,.84,.83,1.27,1.24,.2,.19,.4,.38,.56,.61,.13,.19,.25,.41,.22,.64,0,.04,0,.08,.02,.12,0,.21,0,.42-.02,.62,0,.08-.02,.16-.03,.24-.35,1.21-.68,2.42-1,3.64-.33,1.26-.68,2.52-1.18,3.73,.03-.28,.04-.57,.04-.85,0-.73-.09-1.43-.3-2.12-.2-.64-.49-1.25-.8-1.84-.29-.54-.6-1.07-1.05-1.5-.39-.38-.96-.7-1.53-.61-.3,.05-.56,.24-.66,.53-.1,.3-.04,.61,.07,.9,.1,.28,.24,.55,.38,.81,.17,.33,.35,.67,.53,1,.36,.66,.73,1.32,1.06,1.99,.17,.33,.32,.67,.47,1.01,.07,.17,.15,.35,.2,.53,.05,.16,.08,.34,.1,.5,.06,.36,.17,.71,.22,1.08,.05,.36,.02,.74-.02,1.1,0,.08-.01,.17-.02,.25-.12,.22-.24,.44-.36,.66-1.24,2.25-2.72,4.33-4.35,6.3-.07,.09-.14,.17-.21,.25,.29-.65,.5-1.34,.62-2.04,.14-.78,.17-1.59,.11-2.38-.03-.4-.09-.8-.17-1.19-.07-.35-.12-.68-.32-.98-.09-.13-.2-.24-.3-.37-.1-.13-.23-.23-.38-.31-.31-.15-.7-.16-1.03-.08-.18,.05-.34,.11-.48,.23-.12,.1-.21,.23-.28,.37-.07,.16-.08,.32-.11,.49-.03,.21-.06,.42-.07,.63-.03,.41-.02,.82,.04,1.23,.06,.39,.17,.77,.28,1.15,.11,.37,.22,.73,.29,1.11,.07,.39,.11,.78,.08,1.18-.02,.41-.09,.82-.15,1.22-.06,.38-.18,.75-.33,1.11-.16,.37-.35,.73-.54,1.08-.1,.17-.19,.35-.29,.52-.09,.16-.16,.33-.26,.47-.04,.06-.1,.09-.16,.13-.03,.02-.06,.05-.08,.08,0,.01-.02,.03-.03,.04,.01,0,.03,0,.07,0-.02,0-.05,0-.07,0,0,0,0,.01,0,.02,0,.02-.02,0,0-.02-.09,.03-.13,.13-.11,.21-.06,.05-.12,.11-.17,.16-.47,.42-.89,.91-1.31,1.38-.83,.94-1.62,1.92-2.4,2.91-.78,.99-1.54,2.01-2.22,3.08-.29,.45-.56,.9-.83,1.36,.14-.42,.28-.85,.4-1.27,.31-1.09,.48-2.21,.55-3.34,.07-1.12,.05-2.25-.02-3.37-.03-.53-.09-1.06-.19-1.58-.09-.47-.19-.94-.4-1.37-.18-.37-.45-.68-.82-.88-.4-.21-.87-.22-1.28-.03-.39,.18-.73,.52-.89,.92-.1,.25-.18,.51-.23,.77-.05,.27-.07,.54-.09,.82-.08,1.11-.04,2.22,.1,3.32,.07,.55,.16,1.1,.25,1.65,.09,.54,.17,1.09,.25,1.64,.17,1.1,.39,2.18,.64,3.26,.06,.24,.11,.5,.1,.75,0,.28-.05,.55-.1,.82-.05,.27-.12,.53-.19,.79-.07,.27-.16,.54-.17,.81,0,.11-.01,.21-.05,.32-.05,.12-.1,.23-.13,.36,0,.02,0,.04,0,.06-.15,.34-.3,.67-.44,1.01-.25,.59-.48,1.33-.79,1.88-.17,.3,.29,.35,.42,.09,1.27-2.46,2.2-5.12,3.61-7.5,.19-.13,.41-.23,.6-.36,.21-.14,.41-.29,.63-.41,.43-.25,.92-.41,1.38-.57,.23-.08,.46-.15,.7-.2,.25-.05,.51-.09,.76-.14,.53-.1,1.04-.23,1.57-.34,1.05-.22,2.13-.38,3.19-.55,.9-.14,1.8-.29,2.68-.56,.43-.14,.85-.31,1.24-.53,.36-.2,.73-.43,.98-.77,.13-.17,.21-.37,.2-.59-.01-.23-.15-.42-.31-.57-.32-.28-.75-.41-1.15-.49-.97-.18-1.97-.09-2.94,.06-1.03,.16-2.04,.42-3.03,.76-.96,.33-1.87,.76-2.76,1.25-.66,.38-1.32,.77-1.92,1.24,.12-.17,.24-.33,.37-.5,1.2-1.58,2.46-3.14,3.82-4.58,.71-.75,1.5-1.42,2.22-2.16,.68-.7,1.31-1.44,1.94-2.19,.07-.01,.12-.06,.14-.14,0,.03,.03-.05,.01-.03,.02-.03,.03-.04,.04-.05,.05-.05,.1-.07,.15-.1,.02-.01,.05-.02,.08-.03,.03,.02,.08,.02,.11-.01,.02-.02,.04-.03,.05-.05,.06-.02,.13-.04,.19-.06,.35-.1,.69-.24,1.04-.33,.96-.27,1.97-.32,2.95-.41,1.98-.18,3.96-.46,5.88-.99,.39-.11,.78-.23,1.14-.42,.18-.09,.36-.2,.51-.34,.09-.08,.17-.17,.25-.25,.09-.09,.19-.18,.27-.29,.07-.1,.12-.2,.14-.32,.02-.12,0-.23-.03-.35-.03-.19-.1-.35-.25-.47-.07-.06-.15-.09-.23-.13-.12-.06-.23-.12-.35-.17-.22-.09-.46-.14-.69-.19-.49-.1-.99-.11-1.49-.08-.5,.03-.99,.1-1.48,.19-.97,.19-1.92,.48-2.85,.8-.9,.31-1.79,.69-2.62,1.17-.42,.24-.82,.51-1.2,.8,1.66-2.21,3.11-4.56,4.27-7.07,.07-.13,.14-.25,.21-.38,.09-.17,.18-.33,.3-.48,.12-.16,.28-.28,.44-.4,.35-.25,.69-.51,1.04-.74,.35-.23,.74-.38,1.13-.55,.82-.36,1.64-.71,2.44-1.12,.4-.2,.8-.39,1.22-.55,.38-.14,.75-.28,1.12-.44,.7-.31,1.39-.74,1.59-1.54,.08-.31,.08-.67-.15-.92Zm-5.45-4.51c.38-.61,.78-1.21,1.25-1.76,.45-.52,.96-1,1.53-1.39,.56-.39,1.19-.74,1.84-.96,.3-.1,.64-.17,.95-.17,.12,0,.26,0,.36,.05,0,0,.02,.01,.04,.03h0v.02h.01v.09c0,.07-.01,.08-.03,.13-.02,.06-.05,.12-.08,.18-.05,.1-.09,.17-.17,.27-.16,.22-.35,.42-.55,.6-.92,.86-2.06,1.42-3.13,2.06-.27,.16-.54,.34-.8,.52-.26,.19-.51,.4-.76,.59-.13,.1-.27,.19-.4,.29,.21-.24,.43-.48,.66-.71,.5-.5,1.06-.93,1.66-1.31,.34-.21,.68-.41,1.02-.61,.09-.05,0-.21-.09-.16-.62,.35-1.25,.69-1.82,1.11-.57,.43-1.07,.94-1.54,1.47-.15,.17-.3,.34-.45,.52,.15-.3,.32-.58,.5-.87Zm-.65-7.32c.03-1,.27-1.91,.76-2.78,.42-.76,.92-1.5,1.56-2.09,.28-.26,.58-.48,.91-.66,.24,.23,.09,.83,.03,1.08-.11,.5-.29,.98-.48,1.45-.26,.65-.5,1.31-.71,1.99-.29,.92-.63,1.79-1.01,2.67-.1,.23-.2,.45-.27,.68-.08,.23-.11,.48-.17,.71-.05,.19-.11,.4-.19,.61,.02-.64,.05-1.29,.14-1.93,.1-.77,.28-1.53,.48-2.28,.11-.43,.24-.86,.39-1.28,.04-.11-.12-.18-.16-.07-.29,.73-.5,1.48-.67,2.25-.17,.78-.3,1.56-.35,2.36,0,.11-.01,.22-.02,.33-.12-1.01-.26-2.01-.23-3.03Zm-1.05,8.22c-.34-.38-.74-.7-1.1-1.05-.71-.68-1.35-1.45-1.83-2.32-.07-.13-.23-.34-.17-.49,.04-.1,.21-.16,.33-.19,.08-.02,.17-.03,.25-.03,.01,0,.08,0,.08,0,.06,0,.11,0,.17,.01,.21,.03,.42,.11,.6,.23,.75,.47,1.25,1.26,1.57,2.07,.19,.47,.33,.97,.4,1.47v.03c-.16-.33-.34-.64-.57-.93-.38-.5-.85-.93-1.31-1.35-.11-.1-.24,.08-.14,.17,.45,.42,.91,.84,1.28,1.33,.32,.42,.53,.91,.77,1.37,0,.05,0,.09,0,.14-.1-.16-.21-.32-.34-.45Zm-20.27,34.69s.03,.02,.05,.02c-.03,.07-.07,.14-.1,.21,.02-.08,.04-.15,.06-.23Zm1.5-4.43c-.14,.64-.33,1.27-.53,1.89,.03-.24,.05-.48,.07-.72,.08-1.31-.05-2.62-.25-3.92-.11-.74-.24-1.47-.36-2.2-.02-.14-.24-.11-.22,.03,.21,1.26,.44,2.52,.55,3.79,.06,.64,.09,1.28,.07,1.92-.02,.63-.09,1.27-.2,1.89-.02,.14-.05,.27-.09,.4h0c-.09,.26-.19,.51-.29,.76,0,.02-.01,.05-.01,.07-.05,.12-.11,.24-.2,.33,.05-.25,.09-.5,.1-.76,.02-.53-.13-1.02-.25-1.53-.12-.53-.23-1.06-.32-1.59-.19-1.06-.34-2.14-.52-3.2-.18-1.06-.33-2.12-.33-3.2,0-.53,.02-1.06,.06-1.59,.02-.25,.06-.5,.13-.74,.06-.22,.14-.43,.27-.61,.23-.29,.57-.51,.94-.53,.36-.01,.71,.2,.93,.47,.23,.29,.37,.66,.45,1.02,.12,.51,.21,1.02,.26,1.54,.11,1.06,.13,2.15,.1,3.22-.03,1.09-.14,2.18-.38,3.25Zm1.17,.71s.05-.08,.08-.12c.02,0,.04-.01,.06-.03-.05,.05-.09,.1-.13,.14Zm1.24-1.19c.4-.31,.82-.58,1.25-.83,.84-.51,1.72-.97,2.64-1.32,.93-.36,1.89-.66,2.87-.85,.96-.19,1.96-.34,2.94-.27,.39,.03,.8,.07,1.17,.21,.17,.07,.35,.15,.48,.29,.06,.06,.11,.12,.13,.2,.01,.05,0,.12-.01,.17-.11,.34-.49,.57-.77,.74-.36,.22-.76,.4-1.16,.54-.82,.29-1.69,.43-2.55,.56-1.01,.16-2.02,.32-3.03,.51-.51,.1-1.02,.22-1.53,.33-.49,.11-.99,.17-1.47,.29-.49,.13-.98,.3-1.44,.5-.23,.09-.44,.21-.64,.34,.17-.19,.35-.38,.54-.54,.35-.3,.75-.51,1.16-.69,.44-.2,.89-.37,1.32-.58,.41-.19,.83-.35,1.27-.44,.56-.11,1.13-.09,1.68-.21,.12-.03,.1-.21-.03-.19-.52,.08-1.04,.07-1.56,.16-.45,.07-.88,.22-1.3,.41-.46,.2-.92,.4-1.38,.6-.42,.19-.84,.39-1.2,.68-.12,.1-.24,.2-.35,.31,.3-.33,.62-.63,.97-.9Zm6.66-8.72c-.04,.05-.08,.1-.12,.16h-.01c.27-.62,.54-1.26,.73-1.93,.24-.81,.36-1.65,.31-2.49-.01-.23-.04-.46-.09-.68-.05-.22-.1-.45-.06-.68,.02-.1-.15-.15-.18-.05-.12,.38,.04,.77,.08,1.15,.05,.42,.05,.85,0,1.27-.08,.86-.34,1.68-.66,2.48-.18,.45-.37,.89-.56,1.33,0,.02-.01,.04,0,.06-.16,.17-.32,.34-.49,.51l-.04,.04c.05-.08,.09-.16,.14-.25,.39-.68,.71-1.41,.82-2.19,.06-.4,.12-.8,.14-1.21,.02-.4-.01-.79-.09-1.18-.14-.75-.44-1.45-.59-2.2-.08-.39-.1-.78-.09-1.17,0-.2,.02-.4,.05-.59,.02-.16,.02-.33,.08-.48,.05-.13,.13-.24,.24-.32,.13-.1,.3-.14,.46-.16,.3-.04,.64,.01,.86,.24,.05,.05,.09,.12,.14,.17,.06,.05,.11,.11,.15,.17,.09,.12,.15,.25,.2,.39,.05,.16,.07,.33,.1,.49,.04,.19,.07,.39,.1,.58,.11,.77,.13,1.55,.04,2.32-.09,.76-.26,1.51-.54,2.22-.28,.72-.69,1.37-1.15,2Zm4.02-3.39c.77-.52,1.62-.92,2.48-1.26,.88-.34,1.79-.63,2.71-.86,.93-.23,1.91-.41,2.87-.36,.46,.02,.96,.1,1.39,.28,.1,.04,.2,.1,.3,.15,.06,.03,.14,.06,.18,.11,.04,.04,.06,.09,.07,.14,.01,.09,.05,.19,.03,.28-.02,.1-.09,.17-.16,.23-.09,.09-.18,.18-.26,.27-.13,.13-.28,.24-.44,.33-.35,.19-.73,.31-1.11,.42-1.86,.52-3.78,.78-5.7,.96-.98,.09-1.97,.14-2.93,.38-.13,.03-.25,.07-.38,.1,1.13-.69,2.47-1.06,3.76-1.35,.48-.11,.97-.21,1.45-.33,.11-.03,.1-.21-.03-.19-.89,.16-1.78,.35-2.65,.59-.87,.24-1.73,.55-2.52,1.01-.28,.16-.55,.34-.8,.54l-.09,.03c.58-.54,1.17-1.05,1.83-1.49Zm3-7.35c-.04,.18-.08,.35-.1,.53,0,.04,0,.07,.01,.1-.06,.13-.12,.25-.18,.38,0-.19,0-.38-.03-.56,.03-.62-.02-1.25-.09-1.86-.05-.44-.1-.89-.2-1.33-.1-.43-.25-.84-.42-1.24-.19-.45-.42-.9-.63-1.34-.06-.12-.25-.04-.19,.08,.38,.77,.78,1.55,1,2.38,.11,.42,.17,.85,.22,1.29,.03,.27,.06,.54,.09,.81-.07-.35-.19-.67-.34-1-.57-1.33-1.34-2.57-2-3.86-.14-.26-.28-.53-.38-.8-.08-.22-.16-.49-.05-.69,.11-.2,.32-.22,.52-.19,.22,.03,.44,.12,.63,.26,.46,.32,.79,.8,1.07,1.28,.31,.54,.59,1.1,.82,1.68,.24,.63,.4,1.27,.43,1.94,.02,.36,.01,.72-.01,1.07-.03,.36-.06,.71-.14,1.06Zm8.38-4.72c-.74,.34-1.53,.55-2.25,.92-.76,.39-1.54,.74-2.32,1.08-.38,.17-.76,.32-1.13,.51-.3,.15-.58,.34-.85,.53,.24-.24,.5-.46,.77-.67,.6-.47,1.24-.88,1.9-1.28,.37-.23,.74-.45,1.11-.68,.09-.05,0-.21-.09-.16-.69,.39-1.38,.79-2.04,1.23-.57,.38-1.12,.78-1.62,1.24,.19-.27,.39-.52,.6-.76,.53-.6,1.11-1.17,1.73-1.67,.64-.52,1.34-.95,2.07-1.34,.7-.37,1.44-.7,2.23-.81,.09-.01,.19-.02,.28-.03,.07,0,.14,0,.19,0,.06,0,.12,0,.19,.02,.03,0,.06,.01,.09,.02h.03l.04,.02s.06,.02,.09,.04c.03,.01,.05,.02,.04,.02,.02,.02,.04,.03,.06,.05h.02l.02,.04s.05,.07,.06,.11c.01,.04,.02,.12,.02,.16-.02,.72-.64,1.15-1.23,1.42Z"/></g></g></g></svg>